G04*
G04 #@! TF.GenerationSoftware,Altium Limited,Altium Designer,18.0.7 (293)*
G04*
G04 Layer_Physical_Order=1*
G04 Layer_Color=255*
%FSLAX25Y25*%
%MOIN*%
G70*
G01*
G75*
%ADD11C,0.01000*%
%ADD12R,0.04449X0.06969*%
%ADD13R,0.03819X0.06811*%
%ADD14R,0.06811X0.04331*%
%ADD15R,0.03937X0.02756*%
%ADD25C,0.03000*%
%ADD26C,0.02480*%
%ADD27C,0.12205*%
%ADD28R,0.05906X0.05906*%
%ADD29C,0.05906*%
%ADD30R,0.05906X0.05906*%
%ADD31C,0.05000*%
D11*
X0Y0D02*
Y256000D01*
Y0D02*
X199000D01*
Y256000D01*
X0D02*
X199000D01*
D12*
X105689Y49500D02*
D03*
X94311D02*
D03*
X156189D02*
D03*
X144811D02*
D03*
X44811D02*
D03*
X56189D02*
D03*
D13*
X153173Y212500D02*
D03*
X164827D02*
D03*
X125048D02*
D03*
X136702D02*
D03*
X96923D02*
D03*
X108577D02*
D03*
X68798D02*
D03*
X80452D02*
D03*
X40673D02*
D03*
X52327D02*
D03*
D14*
X152202Y224256D02*
D03*
Y236146D02*
D03*
X126369Y224256D02*
D03*
Y236146D02*
D03*
X100535Y224256D02*
D03*
Y236146D02*
D03*
X74500Y225055D02*
D03*
Y236945D02*
D03*
X48869Y224256D02*
D03*
Y236146D02*
D03*
D15*
X38878Y78783D02*
D03*
X62500D02*
D03*
X38878Y64217D02*
D03*
X62500D02*
D03*
X88783Y78783D02*
D03*
X112406D02*
D03*
X88783Y64217D02*
D03*
X112406D02*
D03*
X138689Y78783D02*
D03*
X162311D02*
D03*
X138689Y64217D02*
D03*
X162311D02*
D03*
D25*
X68798Y219353D02*
X74500Y225055D01*
X68798Y212500D02*
Y219353D01*
X72000Y242961D02*
X74500Y240460D01*
Y236945D02*
Y240460D01*
X69000Y133906D02*
Y190000D01*
X56500Y202500D02*
X69000Y190000D01*
X155693Y32750D02*
Y152807D01*
X135811Y40500D02*
X144811Y49500D01*
X122611Y40500D02*
X135811D01*
X117500Y35389D02*
X122611Y40500D01*
X95500Y187000D02*
Y192500D01*
X89952Y198048D02*
X95500Y192500D01*
X89952Y198048D02*
Y203000D01*
X99314D01*
X85500Y186249D02*
Y187000D01*
Y186249D02*
X118941Y152807D01*
X155693D01*
X94311Y45940D02*
X107500Y32751D01*
X94311Y45940D02*
Y49500D01*
X107500Y32000D02*
Y32751D01*
X69000Y133906D02*
X132661Y70244D01*
X116500Y204577D02*
X118500Y202577D01*
X101800Y236146D02*
Y238300D01*
X174000Y243000D02*
X183500Y233500D01*
X106500Y243000D02*
X174000D01*
X101800Y238300D02*
X106500Y243000D01*
X183500Y26005D02*
Y233500D01*
X169744Y224256D02*
X171000Y223000D01*
X152202Y224256D02*
X169744D01*
X155348Y233000D02*
X171000D01*
X152202Y236146D02*
X155348Y233000D01*
X25461Y242961D02*
X72000D01*
X11500Y229000D02*
X25461Y242961D01*
X11500Y229000D02*
X11500Y44500D01*
X30646Y236146D02*
X48869D01*
X28500Y234000D02*
X30646Y236146D01*
X166495Y9000D02*
X183500Y26005D01*
X76200Y9000D02*
X166495D01*
X67500Y17700D02*
X76200Y9000D01*
X117500Y32000D02*
Y35389D01*
X109689Y45500D02*
X117500D01*
X105689Y49500D02*
X109689Y45500D01*
X132661Y70244D02*
X138689Y64217D01*
X108511Y70244D02*
X132661D01*
X102484Y64217D02*
X108511Y70244D01*
X88783Y64217D02*
X102484D01*
X147500Y32000D02*
Y32751D01*
X11500Y44500D02*
X33000Y23000D01*
X19000Y48500D02*
Y226981D01*
Y48500D02*
X35500Y32000D01*
X19000Y226981D02*
X26019Y234000D01*
X28500D01*
X36300Y224000D02*
X36556Y224256D01*
X28500Y224000D02*
X36300D01*
X67500Y17700D02*
Y32000D01*
X149602Y24398D02*
X171898D01*
X147500Y26500D02*
X149602Y24398D01*
X147500Y26500D02*
Y32000D01*
X137500Y31249D02*
Y32000D01*
X130500Y24249D02*
X137500Y31249D01*
X130500Y17000D02*
Y24249D01*
X127500Y31249D02*
Y32000D01*
X118000Y21749D02*
X127500Y31249D01*
X118000Y17000D02*
Y21749D01*
X156750Y32750D02*
X157500Y32000D01*
X155693Y32750D02*
X156750D01*
X57500Y26000D02*
Y32000D01*
X33000Y23000D02*
X54500D01*
X57500Y26000D01*
X69500Y49500D02*
X75500Y55500D01*
X56189Y49500D02*
X69500D01*
X35500Y32000D02*
X47500D01*
X97500D02*
Y32751D01*
X90649Y39602D02*
X97500Y32751D01*
X47898Y39602D02*
X90649D01*
X44811Y42689D02*
X47898Y39602D01*
X44811Y42689D02*
Y49500D01*
X36500D02*
X44811D01*
X31000Y55000D02*
X36500Y49500D01*
X31000Y55000D02*
Y70905D01*
X38878Y78783D01*
X108577Y212500D02*
X116000Y205077D01*
X171898Y24398D02*
X175000Y27500D01*
X167200Y201300D02*
X175000Y193500D01*
X175000Y27500D02*
X175000Y193500D01*
X164827Y203673D02*
Y212500D01*
Y203673D02*
X167200Y201300D01*
X136702Y210202D02*
Y212500D01*
Y204300D02*
Y210202D01*
Y204300D02*
X139702Y201300D01*
X129077Y202577D02*
X136702Y210202D01*
X118500Y202577D02*
X129077D01*
X108577Y212263D02*
Y212500D01*
X99314Y203000D02*
X108577Y212263D01*
X80452Y212500D02*
X89952Y203000D01*
X80452Y212263D02*
Y212500D01*
X70689Y202500D02*
X80452Y212263D01*
X56500Y202500D02*
X70689D01*
X52327Y206673D02*
X56500Y202500D01*
X52327Y206673D02*
Y212500D01*
X139702Y201300D02*
X167200D01*
X96673Y212750D02*
X100535Y216612D01*
X152202Y213471D02*
X153173Y212500D01*
X152202Y213471D02*
Y224256D01*
X143500Y213500D02*
X145000Y212000D01*
X143500Y213500D02*
Y223146D01*
X125048Y212500D02*
X126369Y213821D01*
Y224256D01*
X40673Y212500D02*
Y216060D01*
X48869Y224256D01*
X36556D02*
X48869D01*
X126369Y236146D02*
X130500D01*
X143500Y223146D01*
X100535Y236146D02*
X101800D01*
X49854Y64217D02*
X55882Y70244D01*
X72672D01*
X78700Y64217D01*
X100535Y216612D02*
Y224256D01*
D26*
X145047Y49500D02*
Y72425D01*
X138689Y78783D02*
X145047Y72425D01*
X144811Y49500D02*
X145047D01*
X81600Y78783D02*
X88783D01*
X38878Y64217D02*
X49854D01*
X78700D02*
X88783D01*
D27*
X11500Y12000D02*
D03*
X188000Y12500D02*
D03*
Y244500D02*
D03*
X11500Y245000D02*
D03*
D28*
X28500Y224000D02*
D03*
X171000Y233000D02*
D03*
D29*
X28500Y234000D02*
D03*
X171000Y223000D02*
D03*
X85500Y187000D02*
D03*
X95500D02*
D03*
X105500D02*
D03*
X157500Y32000D02*
D03*
X147500D02*
D03*
X137500D02*
D03*
X127500D02*
D03*
X117500D02*
D03*
X107500D02*
D03*
X97500D02*
D03*
X87500D02*
D03*
X77500D02*
D03*
X67500D02*
D03*
X57500D02*
D03*
D30*
X115500Y187000D02*
D03*
X47500Y32000D02*
D03*
D31*
X117500Y45500D02*
D03*
X118000Y17000D02*
D03*
X130500D02*
D03*
X75500Y55500D02*
D03*
X145000Y212000D02*
D03*
X81600Y78783D02*
D03*
M02*
