G04*
G04 #@! TF.GenerationSoftware,Altium Limited,Altium Designer,18.0.7 (293)*
G04*
G04 Layer_Color=8421504*
%FSLAX25Y25*%
%MOIN*%
G70*
G01*
G75*
%ADD11C,0.01000*%
%ADD12R,0.04449X0.06969*%
%ADD13R,0.03819X0.06811*%
%ADD14R,0.06811X0.04331*%
%ADD15R,0.03937X0.02756*%
D11*
X0Y0D02*
Y256000D01*
Y0D02*
X199000D01*
Y256000D01*
X0D02*
X199000D01*
D12*
X105689Y49500D02*
D03*
X94311D02*
D03*
X156189D02*
D03*
X144811D02*
D03*
X44811D02*
D03*
X56189D02*
D03*
D13*
X153173Y212500D02*
D03*
X164827D02*
D03*
X125048D02*
D03*
X136702D02*
D03*
X96923D02*
D03*
X108577D02*
D03*
X68798D02*
D03*
X80452D02*
D03*
X40673D02*
D03*
X52327D02*
D03*
D14*
X152202Y224256D02*
D03*
Y236146D02*
D03*
X126369Y224256D02*
D03*
Y236146D02*
D03*
X100535Y224256D02*
D03*
Y236146D02*
D03*
X74500Y225055D02*
D03*
Y236945D02*
D03*
X48869Y224256D02*
D03*
Y236146D02*
D03*
D15*
X38878Y78783D02*
D03*
X62500D02*
D03*
X38878Y64217D02*
D03*
X62500D02*
D03*
X88783Y78783D02*
D03*
X112406D02*
D03*
X88783Y64217D02*
D03*
X112406D02*
D03*
X138689Y78783D02*
D03*
X162311D02*
D03*
X138689Y64217D02*
D03*
X162311D02*
D03*
M02*
