G04*
G04 #@! TF.GenerationSoftware,Altium Limited,Altium Designer,18.0.7 (293)*
G04*
G04 Layer_Color=0*
%FSLAX25Y25*%
%MOIN*%
G70*
G01*
G75*
%ADD11C,0.01000*%
%ADD33C,0.00197*%
G36*
X40841Y81736D02*
X60925D01*
Y61258D01*
X40841D01*
Y81736D01*
D02*
G37*
G36*
X90747D02*
X110831D01*
Y61258D01*
X90747D01*
Y81736D01*
D02*
G37*
G36*
X140652D02*
X160736D01*
Y61258D01*
X140652D01*
Y81736D01*
D02*
G37*
D11*
X0Y0D02*
Y256000D01*
Y0D02*
X199000D01*
Y256000D01*
X0D02*
X199000D01*
D33*
X108898Y45032D02*
Y53969D01*
X91102Y45032D02*
Y53969D01*
X108898D01*
X91102Y45032D02*
X108898D01*
X159398D02*
Y53969D01*
X141602Y45032D02*
Y53969D01*
X159398D01*
X141602Y45032D02*
X159398D01*
X41602D02*
X59398D01*
X41602Y53969D02*
X59398D01*
X41602Y45032D02*
Y53969D01*
X59398Y45032D02*
Y53969D01*
X150280Y208110D02*
X167720D01*
X150280Y216890D02*
X167720D01*
X150280Y208110D02*
Y216890D01*
X167720Y208110D02*
Y216890D01*
X122155Y208110D02*
X139595D01*
X122155Y216890D02*
X139595D01*
X122155Y208110D02*
Y216890D01*
X139595Y208110D02*
Y216890D01*
X94030Y208110D02*
X111470D01*
X94030Y216890D02*
X111470D01*
X94030Y208110D02*
Y216890D01*
X111470Y208110D02*
Y216890D01*
X65905Y208110D02*
X83345D01*
X65905Y216890D02*
X83345D01*
X65905Y208110D02*
Y216890D01*
X83345Y208110D02*
Y216890D01*
X37780Y208110D02*
X55220D01*
X37780Y216890D02*
X55220D01*
X37780Y208110D02*
Y216890D01*
X55220Y208110D02*
Y216890D01*
X147871Y221106D02*
Y239295D01*
X156533D01*
Y221106D02*
Y239295D01*
X147871Y221106D02*
X156533D01*
X122038D02*
Y239295D01*
X130699D01*
Y221106D02*
Y239295D01*
X122038Y221106D02*
X130699D01*
X96205D02*
Y239295D01*
X104866D01*
Y221106D02*
Y239295D01*
X96205Y221106D02*
X104866D01*
X70169Y221906D02*
Y240094D01*
X78831D01*
Y221906D02*
Y240094D01*
X70169Y221906D02*
X78831D01*
X44538Y221106D02*
Y239295D01*
X53199D01*
Y221106D02*
Y239295D01*
X44538Y221106D02*
X53199D01*
M02*
