M48
;Layer_Color=9474304
;FILE_FORMAT=2:5
INCH,TZ
;TYPE=PLATED
T1F00S00C0.02800
T2F00S00C0.03543
;TYPE=NON_PLATED
T3F00S00C0.12205
%
T01
X75500Y55500
X81600Y78783
X117500Y45500
X118000Y17000
X130500
X145000Y212000
T02
X57500Y32000
X67500
X77500
X87500
X97500
X107500
X117500
X127500
X137500
X147500
X157500
X47500
X28500Y224000
Y234000
X85500Y187000
X95500
X105500
X115500
X171000Y223000
Y233000
T03
X188000Y12500
X11500Y12000
X188000Y244500
X11500Y245000
M30
