G04*
G04 #@! TF.GenerationSoftware,Altium Limited,Altium Designer,18.0.7 (293)*
G04*
G04 Layer_Color=32896*
%FSLAX25Y25*%
%MOIN*%
G70*
G01*
G75*
%ADD11C,0.01000*%
%ADD32C,0.00787*%
D11*
X161498Y207500D02*
X155500D01*
X157499Y209499D01*
X155500Y211499D01*
X161498D01*
Y213498D02*
X155500D01*
X158499D01*
X159499Y214498D01*
Y216497D01*
X158499Y217497D01*
X155500D01*
Y219496D02*
Y221496D01*
Y220496D01*
X159499D01*
Y219496D01*
X160498Y225494D02*
X159499D01*
Y224495D01*
Y226494D01*
Y225494D01*
X156500D01*
X155500Y226494D01*
Y232492D02*
Y230493D01*
X156500Y229493D01*
X158499D01*
X159499Y230493D01*
Y232492D01*
X158499Y233492D01*
X157499D01*
Y229493D01*
X155500Y238490D02*
X161498D01*
X158499Y235491D01*
Y239490D01*
X44998Y208000D02*
X39000D01*
X40999Y209999D01*
X39000Y211999D01*
X44998D01*
Y213998D02*
X39000D01*
X41999D01*
X42999Y214998D01*
Y216997D01*
X41999Y217997D01*
X39000D01*
Y219996D02*
Y221995D01*
Y220996D01*
X42999D01*
Y219996D01*
X43998Y225994D02*
X42999D01*
Y224994D01*
Y226994D01*
Y225994D01*
X40000D01*
X39000Y226994D01*
Y232992D02*
Y230993D01*
X40000Y229993D01*
X41999D01*
X42999Y230993D01*
Y232992D01*
X41999Y233992D01*
X40999D01*
Y229993D01*
X43998Y235991D02*
X44998Y236991D01*
Y238990D01*
X43998Y239990D01*
X42999D01*
X41999Y238990D01*
Y237990D01*
Y238990D01*
X40999Y239990D01*
X40000D01*
X39000Y238990D01*
Y236991D01*
X40000Y235991D01*
X109001Y201998D02*
X111000D01*
X112000Y200998D01*
Y197000D01*
X111000Y196000D01*
X109001D01*
X108001Y197000D01*
Y200998D01*
X109001Y201998D01*
X106002D02*
Y196000D01*
X102003D01*
X96005Y201998D02*
X100004D01*
Y196000D01*
X96005D01*
X100004Y198999D02*
X98005D01*
X94006Y201998D02*
Y196000D01*
X91007D01*
X90007Y197000D01*
Y200998D01*
X91007Y201998D01*
X94006D01*
X119000Y19500D02*
Y23499D01*
X117001Y25498D01*
X115001Y23499D01*
Y19500D01*
Y22499D01*
X119000D01*
X113002Y23499D02*
Y19500D01*
Y21499D01*
X112002Y22499D01*
X111003Y23499D01*
X110003D01*
X103005Y25498D02*
Y19500D01*
X106004D01*
X107004Y20500D01*
Y22499D01*
X106004Y23499D01*
X103005D01*
X101006D02*
Y20500D01*
X100006Y19500D01*
X97007D01*
Y23499D01*
X95008Y19500D02*
X93008D01*
X94008D01*
Y23499D01*
X95008D01*
X90009Y19500D02*
Y23499D01*
X87010D01*
X86011Y22499D01*
Y19500D01*
X83012D02*
X81012D01*
X80013Y20500D01*
Y22499D01*
X81012Y23499D01*
X83012D01*
X84011Y22499D01*
Y20500D01*
X83012Y19500D01*
X0Y0D02*
Y256000D01*
Y0D02*
X199000D01*
Y256000D01*
X0D02*
X199000D01*
D32*
X23500Y239000D02*
X33500D01*
X23500Y219000D02*
Y239000D01*
Y219000D02*
X33500D01*
Y239000D01*
X166000Y218000D02*
X176000D01*
Y238000D01*
X166000D02*
X176000D01*
X166000Y218000D02*
Y238000D01*
X120500Y182000D02*
Y192000D01*
X80500D02*
X120500D01*
X80500Y182000D02*
X120500D01*
X80500D02*
Y192000D01*
X50000Y27000D02*
X162500D01*
X42500D02*
X50000D01*
X42500D02*
Y37000D01*
X162500D01*
Y27000D02*
Y37000D01*
M02*
