G04*
G04 #@! TF.GenerationSoftware,Altium Limited,Altium Designer,18.0.7 (293)*
G04*
G04 Layer_Physical_Order=2*
G04 Layer_Color=16711680*
%FSLAX25Y25*%
%MOIN*%
G70*
G01*
G75*
%ADD11C,0.01000*%
%ADD25C,0.03000*%
%ADD27C,0.12205*%
%ADD28R,0.05906X0.05906*%
%ADD29C,0.05906*%
%ADD30R,0.05906X0.05906*%
%ADD31C,0.05000*%
D11*
X0Y0D02*
Y256000D01*
Y0D02*
X199000D01*
Y256000D01*
X0D02*
X199000D01*
D25*
X77102Y194602D02*
X98649D01*
X32500Y150000D02*
X77102Y194602D01*
X32500Y25500D02*
Y150000D01*
X70500Y202500D02*
X100751D01*
X26000Y158000D02*
X70500Y202500D01*
X26000Y19500D02*
Y158000D01*
X98649Y194602D02*
X105500Y187751D01*
Y187000D02*
Y187751D01*
X100751Y202500D02*
X115500Y187751D01*
X32500Y25500D02*
X32822D01*
X68000Y42500D02*
X97751D01*
X62500Y48000D02*
X68000Y42500D01*
X115500Y187000D02*
Y187751D01*
X81217Y73217D02*
Y78783D01*
X168500Y186656D02*
X178602Y196758D01*
Y226149D01*
X171751Y233000D02*
X178602Y226149D01*
X171000Y233000D02*
X171751D01*
X41322Y17000D02*
X118000D01*
X32822Y25500D02*
X41322Y17000D01*
X157500Y32000D02*
Y32751D01*
X150649Y39602D02*
X157500Y32751D01*
X123398Y39602D02*
X150649D01*
X117500Y45500D02*
X123398Y39602D01*
X107500Y55500D02*
X117500Y45500D01*
X75500Y55500D02*
X107500D01*
X168500Y30000D02*
Y186656D01*
X162898Y24398D02*
X168500Y30000D01*
X94351Y24398D02*
X162898D01*
X87500Y31249D02*
X94351Y24398D01*
X123350Y9850D02*
X130500Y17000D01*
X26000Y19500D02*
X35650Y9850D01*
X123350D01*
X87500Y31249D02*
Y32000D01*
X77500Y31249D02*
Y32000D01*
X70649Y24398D02*
X77500Y31249D01*
X42621Y24398D02*
X70649D01*
X39500Y27519D02*
X42621Y24398D01*
X39500Y27519D02*
Y86600D01*
X107500Y32000D02*
Y32751D01*
X97751Y42500D02*
X107500Y32751D01*
X62500Y48000D02*
Y54500D01*
X81217Y73217D01*
Y78783D02*
X81600D01*
X39500Y86600D02*
X144500Y191600D01*
Y211500D02*
X145000Y212000D01*
X144500Y191600D02*
Y211500D01*
D27*
X11500Y12000D02*
D03*
X188000Y12500D02*
D03*
Y244500D02*
D03*
X11500Y245000D02*
D03*
D28*
X28500Y224000D02*
D03*
X171000Y233000D02*
D03*
D29*
X28500Y234000D02*
D03*
X171000Y223000D02*
D03*
X85500Y187000D02*
D03*
X95500D02*
D03*
X105500D02*
D03*
X157500Y32000D02*
D03*
X147500D02*
D03*
X137500D02*
D03*
X127500D02*
D03*
X117500D02*
D03*
X107500D02*
D03*
X97500D02*
D03*
X87500D02*
D03*
X77500D02*
D03*
X67500D02*
D03*
X57500D02*
D03*
D30*
X115500Y187000D02*
D03*
X47500Y32000D02*
D03*
D31*
X117500Y45500D02*
D03*
X118000Y17000D02*
D03*
X130500D02*
D03*
X75500Y55500D02*
D03*
X145000Y212000D02*
D03*
X81600Y78783D02*
D03*
M02*
