G04*
G04 #@! TF.GenerationSoftware,Altium Limited,Altium Designer,18.0.7 (293)*
G04*
G04 Layer_Physical_Order=2*
G04 Layer_Color=16711680*
%FSLAX25Y25*%
%MOIN*%
G70*
G01*
G75*
%ADD10C,0.00500*%
%ADD12C,0.00197*%
%ADD26C,0.03000*%
%ADD28C,0.12205*%
%ADD29R,0.05906X0.05906*%
%ADD30C,0.05906*%
%ADD31R,0.05906X0.05906*%
%ADD32C,0.05000*%
G36*
X40841Y81736D02*
X60925D01*
Y61258D01*
X40841D01*
Y81736D01*
D02*
G37*
G36*
X90747D02*
X110831D01*
Y61258D01*
X90747D01*
Y81736D01*
D02*
G37*
G36*
X140652D02*
X160736D01*
Y61258D01*
X140652D01*
Y81736D01*
D02*
G37*
D10*
X93504Y46035D02*
Y52965D01*
X106496Y46035D02*
Y52965D01*
X93504D02*
X106496D01*
X93504Y46035D02*
X106496D01*
X93504D02*
Y52965D01*
X106496Y46035D02*
Y52965D01*
X93504D02*
X106496D01*
X93504Y46035D02*
X106496D01*
X144004D02*
Y52965D01*
X156996Y46035D02*
Y52965D01*
X144004D02*
X156996D01*
X144004Y46035D02*
X156996D01*
X144004D02*
Y52965D01*
X156996Y46035D02*
Y52965D01*
X144004D02*
X156996D01*
X144004Y46035D02*
X156996D01*
X44004D02*
X56996D01*
X44004Y52965D02*
X56996D01*
Y46035D02*
Y52965D01*
X44004Y46035D02*
Y52965D01*
Y46035D02*
X56996D01*
X44004Y52965D02*
X56996D01*
Y46035D02*
Y52965D01*
X44004Y46035D02*
Y52965D01*
X152701Y209154D02*
X165299D01*
X152701Y215846D02*
X165299D01*
Y209154D02*
Y215846D01*
X152701Y209154D02*
Y215846D01*
Y209154D02*
X165299D01*
X152701Y215846D02*
X165299D01*
Y209154D02*
Y215846D01*
X152701Y209154D02*
Y215846D01*
X124576Y209154D02*
X137174D01*
X124576Y215846D02*
X137174D01*
Y209154D02*
Y215846D01*
X124576Y209154D02*
Y215846D01*
Y209154D02*
X137174D01*
X124576Y215846D02*
X137174D01*
Y209154D02*
Y215846D01*
X124576Y209154D02*
Y215846D01*
X96451Y209154D02*
X109049D01*
X96451Y215846D02*
X109049D01*
Y209154D02*
Y215846D01*
X96451Y209154D02*
Y215846D01*
Y209154D02*
X109049D01*
X96451Y215846D02*
X109049D01*
Y209154D02*
Y215846D01*
X96451Y209154D02*
Y215846D01*
X68326Y209154D02*
X80924D01*
X68326Y215846D02*
X80924D01*
Y209154D02*
Y215846D01*
X68326Y209154D02*
Y215846D01*
Y209154D02*
X80924D01*
X68326Y215846D02*
X80924D01*
Y209154D02*
Y215846D01*
X68326Y209154D02*
Y215846D01*
X40201Y209154D02*
X52799D01*
X40201Y215846D02*
X52799D01*
Y209154D02*
Y215846D01*
X40201Y209154D02*
Y215846D01*
Y209154D02*
X52799D01*
X40201Y215846D02*
X52799D01*
Y209154D02*
Y215846D01*
X40201Y209154D02*
Y215846D01*
X148856Y223705D02*
X155549D01*
X148856D02*
Y236697D01*
X155549D01*
Y223705D02*
Y236697D01*
X148856Y223705D02*
X155549D01*
X148856D02*
Y236697D01*
X155549D01*
Y223705D02*
Y236697D01*
X123022Y223705D02*
X129715D01*
X123022D02*
Y236697D01*
X129715D01*
Y223705D02*
Y236697D01*
X123022Y223705D02*
X129715D01*
X123022D02*
Y236697D01*
X129715D01*
Y223705D02*
Y236697D01*
X97189Y223705D02*
X103882D01*
X97189D02*
Y236697D01*
X103882D01*
Y223705D02*
Y236697D01*
X97189Y223705D02*
X103882D01*
X97189D02*
Y236697D01*
X103882D01*
Y223705D02*
Y236697D01*
X71356D02*
X78049D01*
Y223705D02*
Y236697D01*
X71356Y223705D02*
X78049D01*
X71356D02*
Y236697D01*
X78049D01*
Y223705D02*
Y236697D01*
X71356Y223705D02*
X78049D01*
X71356D02*
Y236697D01*
X45522Y223705D02*
X52215D01*
X45522D02*
Y236697D01*
X52215D01*
Y223705D02*
Y236697D01*
X45522Y223705D02*
X52215D01*
X45522D02*
Y236697D01*
X52215D01*
Y223705D02*
Y236697D01*
X56471Y61264D02*
X60925Y65718D01*
X40453Y65753D02*
X44942Y61264D01*
X40453Y76995D02*
X45194Y81736D01*
X56334D02*
X60925Y77145D01*
X56471Y61264D02*
X60925Y65718D01*
X40453Y65753D02*
X44942Y61264D01*
X40453Y76995D02*
X45194Y81736D01*
X56334D02*
X60925Y77145D01*
X106377Y61264D02*
X110831Y65718D01*
X90358Y65753D02*
X94847Y61264D01*
X90358Y76995D02*
X95099Y81736D01*
X106239D02*
X110831Y77145D01*
X106377Y61264D02*
X110831Y65718D01*
X90358Y65753D02*
X94847Y61264D01*
X90358Y76995D02*
X95099Y81736D01*
X106239D02*
X110831Y77145D01*
X156282Y61264D02*
X160736Y65718D01*
X140264Y65753D02*
X144753Y61264D01*
X140264Y76995D02*
X145005Y81736D01*
X156145D02*
X160736Y77145D01*
X156282Y61264D02*
X160736Y65718D01*
X140264Y65753D02*
X144753Y61264D01*
X140264Y76995D02*
X145005Y81736D01*
X156145D02*
X160736Y77145D01*
D12*
X108898Y45032D02*
Y53969D01*
X91102Y45032D02*
Y53969D01*
X108898D01*
X91102Y45032D02*
X108898D01*
X159398D02*
Y53969D01*
X141602Y45032D02*
Y53969D01*
X159398D01*
X141602Y45032D02*
X159398D01*
X41602D02*
X59398D01*
X41602Y53969D02*
X59398D01*
X41602Y45032D02*
Y53969D01*
X59398Y45032D02*
Y53969D01*
X150280Y208110D02*
X167720D01*
X150280Y216890D02*
X167720D01*
X150280Y208110D02*
Y216890D01*
X167720Y208110D02*
Y216890D01*
X122155Y208110D02*
X139595D01*
X122155Y216890D02*
X139595D01*
X122155Y208110D02*
Y216890D01*
X139595Y208110D02*
Y216890D01*
X94030Y208110D02*
X111470D01*
X94030Y216890D02*
X111470D01*
X94030Y208110D02*
Y216890D01*
X111470Y208110D02*
Y216890D01*
X65905Y208110D02*
X83345D01*
X65905Y216890D02*
X83345D01*
X65905Y208110D02*
Y216890D01*
X83345Y208110D02*
Y216890D01*
X37780Y208110D02*
X55220D01*
X37780Y216890D02*
X55220D01*
X37780Y208110D02*
Y216890D01*
X55220Y208110D02*
Y216890D01*
X147871Y221106D02*
Y239295D01*
X156533D01*
Y221106D02*
Y239295D01*
X147871Y221106D02*
X156533D01*
X122038D02*
Y239295D01*
X130699D01*
Y221106D02*
Y239295D01*
X122038Y221106D02*
X130699D01*
X96205D02*
Y239295D01*
X104866D01*
Y221106D02*
Y239295D01*
X96205Y221106D02*
X104866D01*
X79033D02*
Y239295D01*
X70371Y221106D02*
X79033D01*
X70371D02*
Y239295D01*
X79033D01*
X44538Y221106D02*
Y239295D01*
X53199D01*
Y221106D02*
Y239295D01*
X44538Y221106D02*
X53199D01*
D26*
X78102Y194602D02*
X98649D01*
X32500Y149000D02*
X78102Y194602D01*
X32500Y25500D02*
Y149000D01*
X73500Y202500D02*
X100751D01*
X26000Y155000D02*
X73500Y202500D01*
X26000Y19500D02*
Y155000D01*
X98649Y194602D02*
X105500Y187751D01*
Y187000D02*
Y187751D01*
X100751Y202500D02*
X115500Y187751D01*
X32500Y25500D02*
X32822D01*
X68000Y42500D02*
X97751D01*
X62500Y48000D02*
X68000Y42500D01*
X115500Y187000D02*
Y187751D01*
X81217Y73217D02*
Y78783D01*
X168500Y186656D02*
X178602Y196758D01*
Y226149D01*
X171751Y233000D02*
X178602Y226149D01*
X171000Y233000D02*
X171751D01*
X41322Y17000D02*
X118000D01*
X32822Y25500D02*
X41322Y17000D01*
X157500Y32000D02*
Y32751D01*
X150649Y39602D02*
X157500Y32751D01*
X123398Y39602D02*
X150649D01*
X117500Y45500D02*
X123398Y39602D01*
X107500Y55500D02*
X117500Y45500D01*
X75500Y55500D02*
X107500D01*
X168500Y30000D02*
Y186656D01*
X162898Y24398D02*
X168500Y30000D01*
X94351Y24398D02*
X162898D01*
X87500Y31249D02*
X94351Y24398D01*
X123350Y9850D02*
X130500Y17000D01*
X26000Y19500D02*
X35650Y9850D01*
X123350D01*
X87500Y31249D02*
Y32000D01*
X77500Y31249D02*
Y32000D01*
X70649Y24398D02*
X77500Y31249D01*
X42621Y24398D02*
X70649D01*
X39500Y27519D02*
X42621Y24398D01*
X39500Y27519D02*
Y86600D01*
X107500Y32000D02*
Y32751D01*
X97751Y42500D02*
X107500Y32751D01*
X62500Y48000D02*
Y54500D01*
X81217Y73217D01*
Y78783D02*
X81600D01*
X39500Y86600D02*
X144500Y191600D01*
Y211500D02*
X145000Y212000D01*
X144500Y191600D02*
Y211500D01*
D28*
X8500Y9500D02*
D03*
X188000D02*
D03*
Y244500D02*
D03*
X8500D02*
D03*
D29*
X28500Y224000D02*
D03*
X171000Y233000D02*
D03*
D30*
X28500Y234000D02*
D03*
X171000Y223000D02*
D03*
X85500Y187000D02*
D03*
X95500D02*
D03*
X105500D02*
D03*
X157500Y32000D02*
D03*
X147500D02*
D03*
X137500D02*
D03*
X127500D02*
D03*
X117500D02*
D03*
X107500D02*
D03*
X97500D02*
D03*
X87500D02*
D03*
X77500D02*
D03*
X67500D02*
D03*
X57500D02*
D03*
D31*
X115500Y187000D02*
D03*
X47500Y32000D02*
D03*
D32*
X117500Y45500D02*
D03*
X118000Y17000D02*
D03*
X130500D02*
D03*
X75500Y55500D02*
D03*
X145000Y212000D02*
D03*
X81600Y78783D02*
D03*
M02*
