G04*
G04 #@! TF.GenerationSoftware,Altium Limited,Altium Designer,18.0.7 (293)*
G04*
G04 Layer_Color=65535*
%FSLAX25Y25*%
%MOIN*%
G70*
G01*
G75*
%ADD10C,0.00500*%
%ADD11C,0.01000*%
D10*
X97795Y46035D02*
X102205D01*
X97795Y52965D02*
X102205D01*
X148295Y46035D02*
X152705D01*
X148295Y52965D02*
X152705D01*
X48295D02*
X52705D01*
X48295Y46035D02*
X52705D01*
X156362Y215846D02*
X161638D01*
X156362Y209154D02*
X161638D01*
X128237Y215846D02*
X133513D01*
X128237Y209154D02*
X133513D01*
X100112Y215846D02*
X105388D01*
X100112Y209154D02*
X105388D01*
X71987Y215846D02*
X77263D01*
X71987Y209154D02*
X77263D01*
X43862Y215846D02*
X49138D01*
X43862Y209154D02*
X49138D01*
X148088Y223902D02*
Y236500D01*
X156316Y223705D02*
Y236697D01*
X122255Y223902D02*
Y236500D01*
X130483Y223705D02*
Y236697D01*
X96421Y223902D02*
Y236500D01*
X104650Y223705D02*
Y236697D01*
X70386Y224701D02*
Y237299D01*
X78614Y224504D02*
Y237496D01*
X44755Y223902D02*
Y236500D01*
X52983Y223705D02*
Y236697D01*
X46358Y61264D02*
X56594D01*
X44942D02*
X46358D01*
X45177Y81736D02*
X56594D01*
X41240Y77799D02*
X45177Y81736D01*
X56594D02*
X60138Y78193D01*
X56594Y61264D02*
X60138Y64807D01*
X44783Y61264D02*
X44942D01*
X41240Y64807D02*
X44783Y61264D01*
X96264D02*
X106500D01*
X94847D02*
X96264D01*
X95083Y81736D02*
X106500D01*
X91146Y77799D02*
X95083Y81736D01*
X106500D02*
X110043Y78193D01*
X106500Y61264D02*
X110043Y64807D01*
X94689Y61264D02*
X94847D01*
X91146Y64807D02*
X94689Y61264D01*
X146169D02*
X156406D01*
X144753D02*
X146169D01*
X144988Y81736D02*
X156406D01*
X141051Y77799D02*
X144988Y81736D01*
X156406D02*
X159949Y78193D01*
X156406Y61264D02*
X159949Y64807D01*
X144594Y61264D02*
X144753D01*
X141051Y64807D02*
X144594Y61264D01*
D11*
X32002Y213500D02*
X38000D01*
X36001Y215499D01*
X38000Y217499D01*
X32002D01*
Y219498D02*
X38000D01*
X35001D01*
X34001Y220498D01*
Y222497D01*
X35001Y223497D01*
X38000D01*
Y225496D02*
Y227496D01*
Y226496D01*
X34001D01*
Y225496D01*
X33002Y231494D02*
X34001D01*
Y230494D01*
Y232494D01*
Y231494D01*
X37000D01*
X38000Y232494D01*
Y238492D02*
Y236493D01*
X37000Y235493D01*
X35001D01*
X34001Y236493D01*
Y238492D01*
X35001Y239492D01*
X36001D01*
Y235493D01*
X38000Y245490D02*
Y241491D01*
X34001Y245490D01*
X33002D01*
X32002Y244490D01*
Y242491D01*
X33002Y241491D01*
X138002Y217000D02*
X144000D01*
X142001Y218999D01*
X144000Y220999D01*
X138002D01*
Y222998D02*
X144000D01*
X141001D01*
X140001Y223998D01*
Y225997D01*
X141001Y226997D01*
X144000D01*
Y228996D02*
Y230995D01*
Y229996D01*
X140001D01*
Y228996D01*
X139002Y234994D02*
X140001D01*
Y233995D01*
Y235994D01*
Y234994D01*
X143000D01*
X144000Y235994D01*
Y241992D02*
Y239993D01*
X143000Y238993D01*
X141001D01*
X140001Y239993D01*
Y241992D01*
X141001Y242992D01*
X142001D01*
Y238993D01*
X144000Y244991D02*
Y246990D01*
Y245991D01*
X138002D01*
X139002Y244991D01*
X141349Y89948D02*
X140349Y90948D01*
X138350D01*
X137350Y89948D01*
Y88949D01*
X138350Y87949D01*
X140349D01*
X141349Y86949D01*
Y85950D01*
X140349Y84950D01*
X138350D01*
X137350Y85950D01*
X143348Y90948D02*
Y84950D01*
X145347Y86949D01*
X147347Y84950D01*
Y90948D01*
X149346Y89948D02*
X150346Y90948D01*
X152345D01*
X153345Y89948D01*
Y88949D01*
X152345Y87949D01*
X151346D01*
X152345D01*
X153345Y86949D01*
Y85950D01*
X152345Y84950D01*
X150346D01*
X149346Y85950D01*
X91443Y89948D02*
X90443Y90948D01*
X88444D01*
X87445Y89948D01*
Y88949D01*
X88444Y87949D01*
X90443D01*
X91443Y86949D01*
Y85950D01*
X90443Y84950D01*
X88444D01*
X87445Y85950D01*
X93443Y90948D02*
Y84950D01*
X95442Y86949D01*
X97441Y84950D01*
Y90948D01*
X103439Y84950D02*
X99441D01*
X103439Y88949D01*
Y89948D01*
X102440Y90948D01*
X100440D01*
X99441Y89948D01*
X41538D02*
X40538Y90948D01*
X38539D01*
X37539Y89948D01*
Y88949D01*
X38539Y87949D01*
X40538D01*
X41538Y86949D01*
Y85950D01*
X40538Y84950D01*
X38539D01*
X37539Y85950D01*
X43537Y90948D02*
Y84950D01*
X45536Y86949D01*
X47536Y84950D01*
Y90948D01*
X49535Y84950D02*
X51534D01*
X50535D01*
Y90948D01*
X49535Y89948D01*
X66500Y222500D02*
X60502D01*
Y225499D01*
X61502Y226499D01*
X63501D01*
X64501Y225499D01*
Y222500D01*
Y224499D02*
X66500Y226499D01*
Y231497D02*
Y229498D01*
X65500Y228498D01*
X63501D01*
X62501Y229498D01*
Y231497D01*
X63501Y232497D01*
X64501D01*
Y228498D01*
X60502Y238495D02*
X66500D01*
Y235496D01*
X65500Y234496D01*
X63501D01*
X62501Y235496D01*
Y238495D01*
X45000Y37000D02*
Y42998D01*
X47999D01*
X48999Y41998D01*
Y39999D01*
X47999Y38999D01*
X45000D01*
X46999D02*
X48999Y37000D01*
X50998Y41998D02*
X51998Y42998D01*
X53997D01*
X54997Y41998D01*
Y40999D01*
X53997Y39999D01*
X54997Y38999D01*
Y38000D01*
X53997Y37000D01*
X51998D01*
X50998Y38000D01*
Y38999D01*
X51998Y39999D01*
X50998Y40999D01*
Y41998D01*
X51998Y39999D02*
X53997D01*
X96000Y38000D02*
Y43998D01*
X98999D01*
X99999Y42998D01*
Y40999D01*
X98999Y39999D01*
X96000D01*
X97999D02*
X99999Y38000D01*
X101998Y43998D02*
X105997D01*
Y42998D01*
X101998Y39000D01*
Y38000D01*
X146000Y37000D02*
Y42998D01*
X148999D01*
X149999Y41998D01*
Y39999D01*
X148999Y38999D01*
X146000D01*
X147999D02*
X149999Y37000D01*
X155997Y42998D02*
X153997Y41998D01*
X151998Y39999D01*
Y38000D01*
X152998Y37000D01*
X154997D01*
X155997Y38000D01*
Y38999D01*
X154997Y39999D01*
X151998D01*
X31500Y200500D02*
Y206498D01*
X34499D01*
X35499Y205498D01*
Y203499D01*
X34499Y202499D01*
X31500D01*
X33499D02*
X35499Y200500D01*
X41497Y206498D02*
X37498D01*
Y203499D01*
X39497Y204499D01*
X40497D01*
X41497Y203499D01*
Y201500D01*
X40497Y200500D01*
X38498D01*
X37498Y201500D01*
X65500Y200000D02*
Y205998D01*
X68499D01*
X69499Y204998D01*
Y202999D01*
X68499Y201999D01*
X65500D01*
X67499D02*
X69499Y200000D01*
X74497D02*
Y205998D01*
X71498Y202999D01*
X75497D01*
X95000Y198500D02*
Y204498D01*
X97999D01*
X98999Y203498D01*
Y201499D01*
X97999Y200499D01*
X95000D01*
X96999D02*
X98999Y198500D01*
X100998Y203498D02*
X101998Y204498D01*
X103997D01*
X104997Y203498D01*
Y202499D01*
X103997Y201499D01*
X102997D01*
X103997D01*
X104997Y200499D01*
Y199500D01*
X103997Y198500D01*
X101998D01*
X100998Y199500D01*
X130500Y198500D02*
Y204498D01*
X133499D01*
X134499Y203498D01*
Y201499D01*
X133499Y200499D01*
X130500D01*
X132499D02*
X134499Y198500D01*
X140497D02*
X136498D01*
X140497Y202499D01*
Y203498D01*
X139497Y204498D01*
X137498D01*
X136498Y203498D01*
X159500Y200500D02*
Y206498D01*
X162499D01*
X163499Y205498D01*
Y203499D01*
X162499Y202499D01*
X159500D01*
X161499D02*
X163499Y200500D01*
X165498D02*
X167497D01*
X166498D01*
Y206498D01*
X165498Y205498D01*
X87002Y221499D02*
X86002Y220499D01*
Y218500D01*
X87002Y217500D01*
X91000D01*
X92000Y218500D01*
Y220499D01*
X91000Y221499D01*
X89001D01*
Y219499D01*
X88001Y223498D02*
X92000D01*
X90001D01*
X89001Y224498D01*
X88001Y225497D01*
Y226497D01*
X92000Y232495D02*
Y230496D01*
X91000Y229496D01*
X89001D01*
X88001Y230496D01*
Y232495D01*
X89001Y233495D01*
X90001D01*
Y229496D01*
X92000Y238493D02*
Y236494D01*
X91000Y235494D01*
X89001D01*
X88001Y236494D01*
Y238493D01*
X89001Y239493D01*
X90001D01*
Y235494D01*
X92000Y241492D02*
X88001D01*
Y244491D01*
X89001Y245491D01*
X92000D01*
X110502Y220000D02*
X116500D01*
Y222999D01*
X115500Y223999D01*
X114501D01*
X113501Y222999D01*
Y220000D01*
Y222999D01*
X112501Y223999D01*
X111502D01*
X110502Y222999D01*
Y220000D01*
X116500Y225998D02*
Y227997D01*
Y226998D01*
X110502D01*
Y225998D01*
X112501Y230996D02*
X115500D01*
X116500Y231996D01*
Y234995D01*
X112501D01*
X116500Y239994D02*
Y237994D01*
X115500Y236995D01*
X113501D01*
X112501Y237994D01*
Y239994D01*
X113501Y240993D01*
X114501D01*
Y236995D01*
X0Y0D02*
Y256000D01*
Y0D02*
X199000D01*
Y256000D01*
X0D02*
X199000D01*
M02*
