G04*
G04 #@! TF.GenerationSoftware,Altium Limited,Altium Designer,18.0.7 (293)*
G04*
G04 Layer_Color=16711935*
%FSLAX25Y25*%
%MOIN*%
G70*
G01*
G75*
%ADD10C,0.00500*%
%ADD12C,0.00197*%
G36*
X40841Y81736D02*
X60925D01*
Y61258D01*
X40841D01*
Y81736D01*
D02*
G37*
G36*
X90747D02*
X110831D01*
Y61258D01*
X90747D01*
Y81736D01*
D02*
G37*
G36*
X140652D02*
X160736D01*
Y61258D01*
X140652D01*
Y81736D01*
D02*
G37*
D10*
X93504Y46035D02*
Y52965D01*
X106496Y46035D02*
Y52965D01*
X93504D02*
X106496D01*
X93504Y46035D02*
X106496D01*
X93504D02*
Y52965D01*
X106496Y46035D02*
Y52965D01*
X93504D02*
X106496D01*
X93504Y46035D02*
X106496D01*
X144004D02*
Y52965D01*
X156996Y46035D02*
Y52965D01*
X144004D02*
X156996D01*
X144004Y46035D02*
X156996D01*
X144004D02*
Y52965D01*
X156996Y46035D02*
Y52965D01*
X144004D02*
X156996D01*
X144004Y46035D02*
X156996D01*
X44004D02*
X56996D01*
X44004Y52965D02*
X56996D01*
Y46035D02*
Y52965D01*
X44004Y46035D02*
Y52965D01*
Y46035D02*
X56996D01*
X44004Y52965D02*
X56996D01*
Y46035D02*
Y52965D01*
X44004Y46035D02*
Y52965D01*
X152701Y209154D02*
X165299D01*
X152701Y215846D02*
X165299D01*
Y209154D02*
Y215846D01*
X152701Y209154D02*
Y215846D01*
Y209154D02*
X165299D01*
X152701Y215846D02*
X165299D01*
Y209154D02*
Y215846D01*
X152701Y209154D02*
Y215846D01*
X124576Y209154D02*
X137174D01*
X124576Y215846D02*
X137174D01*
Y209154D02*
Y215846D01*
X124576Y209154D02*
Y215846D01*
Y209154D02*
X137174D01*
X124576Y215846D02*
X137174D01*
Y209154D02*
Y215846D01*
X124576Y209154D02*
Y215846D01*
X96451Y209154D02*
X109049D01*
X96451Y215846D02*
X109049D01*
Y209154D02*
Y215846D01*
X96451Y209154D02*
Y215846D01*
Y209154D02*
X109049D01*
X96451Y215846D02*
X109049D01*
Y209154D02*
Y215846D01*
X96451Y209154D02*
Y215846D01*
X68326Y209154D02*
X80924D01*
X68326Y215846D02*
X80924D01*
Y209154D02*
Y215846D01*
X68326Y209154D02*
Y215846D01*
Y209154D02*
X80924D01*
X68326Y215846D02*
X80924D01*
Y209154D02*
Y215846D01*
X68326Y209154D02*
Y215846D01*
X40201Y209154D02*
X52799D01*
X40201Y215846D02*
X52799D01*
Y209154D02*
Y215846D01*
X40201Y209154D02*
Y215846D01*
Y209154D02*
X52799D01*
X40201Y215846D02*
X52799D01*
Y209154D02*
Y215846D01*
X40201Y209154D02*
Y215846D01*
X148856Y223705D02*
X155549D01*
X148856D02*
Y236697D01*
X155549D01*
Y223705D02*
Y236697D01*
X148856Y223705D02*
X155549D01*
X148856D02*
Y236697D01*
X155549D01*
Y223705D02*
Y236697D01*
X123022Y223705D02*
X129715D01*
X123022D02*
Y236697D01*
X129715D01*
Y223705D02*
Y236697D01*
X123022Y223705D02*
X129715D01*
X123022D02*
Y236697D01*
X129715D01*
Y223705D02*
Y236697D01*
X97189Y223705D02*
X103882D01*
X97189D02*
Y236697D01*
X103882D01*
Y223705D02*
Y236697D01*
X97189Y223705D02*
X103882D01*
X97189D02*
Y236697D01*
X103882D01*
Y223705D02*
Y236697D01*
X71356D02*
X78049D01*
Y223705D02*
Y236697D01*
X71356Y223705D02*
X78049D01*
X71356D02*
Y236697D01*
X78049D01*
Y223705D02*
Y236697D01*
X71356Y223705D02*
X78049D01*
X71356D02*
Y236697D01*
X45522Y223705D02*
X52215D01*
X45522D02*
Y236697D01*
X52215D01*
Y223705D02*
Y236697D01*
X45522Y223705D02*
X52215D01*
X45522D02*
Y236697D01*
X52215D01*
Y223705D02*
Y236697D01*
X56471Y61264D02*
X60925Y65718D01*
X40453Y65753D02*
X44942Y61264D01*
X40453Y76995D02*
X45194Y81736D01*
X56334D02*
X60925Y77145D01*
X56471Y61264D02*
X60925Y65718D01*
X40453Y65753D02*
X44942Y61264D01*
X40453Y76995D02*
X45194Y81736D01*
X56334D02*
X60925Y77145D01*
X106377Y61264D02*
X110831Y65718D01*
X90358Y65753D02*
X94847Y61264D01*
X90358Y76995D02*
X95099Y81736D01*
X106239D02*
X110831Y77145D01*
X106377Y61264D02*
X110831Y65718D01*
X90358Y65753D02*
X94847Y61264D01*
X90358Y76995D02*
X95099Y81736D01*
X106239D02*
X110831Y77145D01*
X156282Y61264D02*
X160736Y65718D01*
X140264Y65753D02*
X144753Y61264D01*
X140264Y76995D02*
X145005Y81736D01*
X156145D02*
X160736Y77145D01*
X156282Y61264D02*
X160736Y65718D01*
X140264Y65753D02*
X144753Y61264D01*
X140264Y76995D02*
X145005Y81736D01*
X156145D02*
X160736Y77145D01*
D12*
X108898Y45032D02*
Y53969D01*
X91102Y45032D02*
Y53969D01*
X108898D01*
X91102Y45032D02*
X108898D01*
X159398D02*
Y53969D01*
X141602Y45032D02*
Y53969D01*
X159398D01*
X141602Y45032D02*
X159398D01*
X41602D02*
X59398D01*
X41602Y53969D02*
X59398D01*
X41602Y45032D02*
Y53969D01*
X59398Y45032D02*
Y53969D01*
X150280Y208110D02*
X167720D01*
X150280Y216890D02*
X167720D01*
X150280Y208110D02*
Y216890D01*
X167720Y208110D02*
Y216890D01*
X122155Y208110D02*
X139595D01*
X122155Y216890D02*
X139595D01*
X122155Y208110D02*
Y216890D01*
X139595Y208110D02*
Y216890D01*
X94030Y208110D02*
X111470D01*
X94030Y216890D02*
X111470D01*
X94030Y208110D02*
Y216890D01*
X111470Y208110D02*
Y216890D01*
X65905Y208110D02*
X83345D01*
X65905Y216890D02*
X83345D01*
X65905Y208110D02*
Y216890D01*
X83345Y208110D02*
Y216890D01*
X37780Y208110D02*
X55220D01*
X37780Y216890D02*
X55220D01*
X37780Y208110D02*
Y216890D01*
X55220Y208110D02*
Y216890D01*
X147871Y221106D02*
Y239295D01*
X156533D01*
Y221106D02*
Y239295D01*
X147871Y221106D02*
X156533D01*
X122038D02*
Y239295D01*
X130699D01*
Y221106D02*
Y239295D01*
X122038Y221106D02*
X130699D01*
X96205D02*
Y239295D01*
X104866D01*
Y221106D02*
Y239295D01*
X96205Y221106D02*
X104866D01*
X79033D02*
Y239295D01*
X70371Y221106D02*
X79033D01*
X70371D02*
Y239295D01*
X79033D01*
X44538Y221106D02*
Y239295D01*
X53199D01*
Y221106D02*
Y239295D01*
X44538Y221106D02*
X53199D01*
M02*
