M48
;Layer_Color=9474304
;FILE_FORMAT=2:5
INCH,TZ
;TYPE=PLATED
T1F00S00C0.01200
T2F00S00C0.02000
T3F00S00C0.02500
T4F00S00C0.03346
T5F00S00C0.03543
T6F00S00C0.03937
T7F00S00C0.04000
T8F00S00C0.04016
T9F00S00C0.05000
%
T01
X322200Y435100
X328750Y434800
X332300Y438600
X328500Y456400
X322700Y453700
X334800Y458900
X385400Y454200
X385200Y449400
X385000Y444600
Y437700
X466100Y464500
X560575Y538325
Y568375
X467300Y567900
X461300
Y536600
X467300
X466200Y481300
X466100Y476500
Y470500
X429100Y562700
X402200Y571300
X397400Y571400
X389100Y562700
X336700Y561400
X334700Y565900
X332500Y569900
X332000Y574600
X320200
X318100Y569700
X320200Y565800
X320300Y561400
X320100Y557100
X332900
X397900Y619500
X409300
X242300Y559100
X139400Y646500
Y663500
X296200Y700800
X291300Y707200
X302700Y729200
X283500Y734400
X235500Y825100
T02
X440800Y274500
X216500Y307100
X206100Y311900
X216300Y426700
X626100Y478400
X173100Y596300
X248200Y749400
X443300Y693400
X474300Y660100
T03
X397200Y280000
X221000Y673200
X218700Y728800
X376800Y686500
X510700Y781300
X434000Y786100
X255700Y790200
T04
X282000Y429000
Y439000
Y449000
Y459000
X292000
Y449000
Y439000
Y429000
X303000Y409000
X313000
X322000
X332000
X342000
X352000
X362000
X372000
X392000
X402000
X412000
X422000
X432000
X442000
X452000
X462000
X482000
X492000
X502000
X512000
X522000
X532000
X542000
X552000
X548000Y599000
X558000
X568000
X578000
X588000
X538000
X528000
X518000
X508000
X498000
X482000
X472000
X462000
X452000
X442000
X432000
X422000
X412000
X392000
X382000
X372000
X362000
X352000
X342000
X332000
X322000
X292000
X282000
Y589000
X292000
Y579000
X282000
Y569000
X292000
Y559000
X282000
Y549000
X292000
Y539000
X282000
Y529000
X292000
Y519000
X282000
Y509000
X292000
Y499000
X282000
Y489000
X292000
Y479000
X282000
Y469000
X292000
X238500Y714700
X227500
Y744700
X238500
T05
X328500Y225000
X338500
X348500
X358500
X368500
X378500
X419500Y220000
Y210000
Y200000
Y190000
Y180000
Y230000
X290900Y230500
Y220500
Y210500
Y200500
Y190500
Y180500
X319500Y368000
X329500
X339500
X349500
X359500
X369500
X379500
X389500
X461500Y451000
X471500
X481500
X560575Y468000
X570575
X633500Y612000
X623500
X613500
X549500Y570000
X539500
X529500
X519500
X509500
X499500
X489500
X479500
X560575Y498000
X570575
Y488000
Y478000
X560575
Y488000
X593000Y501000
Y511000
Y521000
X345421Y508500
X315500
X115500Y511000
Y521000
Y501000
X95500Y612000
X85500
X75500
X128748Y648000
Y658000
Y668000
Y678000
Y688000
Y698000
X193500Y717500
Y727500
Y737500
Y747500
Y757500
Y767500
X221000Y683563
X231000
X241000
X251000
X261000
X271000
X286000Y684000
Y674000
Y664000
X271000Y657500
X261000
X251000
X241000
X231000
X221000
X268000Y722000
X278000
X288000
X298000
X308000
X318000
X328000
X338000
X348000
X358000
X368000
X378000
X388000
X398000
X408000
X418000
X428000
X438000
X434500Y685000
Y675000
Y665000
X457500Y754500
Y764500
X538500Y690000
Y680000
Y670000
Y660000
X580252Y659000
Y669000
Y679000
Y689000
Y699000
Y649000
X503500Y812874
X493500
X483500
X473500
X463500
X453500
X255500
X245500
X235500
X225500
X215500
X205500
T06
X65500Y151398
X264713
X441600Y151498
X640813
Y232600
X441600
X264713Y232500
X65500
X275000Y751165
X433661
Y824000
X275000
T07
X44300Y598100
X122100Y578500
T08
X308681Y645846
Y655689
Y665532
Y675374
X416555
Y665532
Y655689
Y645846
T09
X378200Y246700
X146900Y470300
X138300Y543800
X13000Y536800
Y556800
Y576800
Y596800
X175500Y665000
Y685000
M30
