G04*
G04 #@! TF.GenerationSoftware,Altium Limited,Altium Designer,18.0.7 (293)*
G04*
G04 Layer_Physical_Order=2*
G04 Layer_Color=16711680*
%FSLAX25Y25*%
%MOIN*%
G70*
G01*
G75*
%ADD10C,0.00945*%
%ADD11C,0.01000*%
%ADD13C,0.00050*%
%ADD28C,0.05000*%
%ADD29C,0.12000*%
%ADD30C,0.15000*%
%ADD31C,0.04000*%
%ADD32C,0.03000*%
%ADD33C,0.06000*%
%ADD34C,0.02000*%
%ADD35R,0.11000X0.11000*%
%ADD36C,0.11000*%
%ADD37R,0.11000X0.11000*%
%ADD38R,0.06299X0.06299*%
%ADD39C,0.06299*%
%ADD40C,0.05347*%
%ADD41R,0.05347X0.05347*%
%ADD42R,0.05512X0.05512*%
%ADD43C,0.05512*%
%ADD44R,0.05512X0.05512*%
%ADD45R,0.07874X0.07874*%
%ADD46C,0.02500*%
%ADD47C,0.05000*%
%ADD48C,0.10000*%
%ADD49C,0.01500*%
D10*
X552276Y396126D02*
X551567Y396535D01*
Y395717D01*
X552276Y396126D01*
X551567Y396535D01*
Y395717D01*
X552276Y396126D01*
D11*
X394400Y442300D02*
X409200D01*
X389800Y437700D02*
X394400Y442300D01*
X385000Y437700D02*
X389800D01*
X394822Y449178D02*
X407750D01*
X389800Y454200D02*
X394822Y449178D01*
X385400Y454200D02*
X389800D01*
X384900Y444500D02*
X385000Y444600D01*
X387461D01*
X408828D02*
X412528Y448300D01*
X387461Y444600D02*
X408828D01*
X408500Y447100D02*
X411700Y450300D01*
X390600Y447100D02*
X408500D01*
X388200Y449500D02*
X390600Y447100D01*
X385300Y449500D02*
X388200D01*
X465600Y481300D02*
X466200D01*
X462800Y478500D02*
X465600Y481300D01*
X449072Y478500D02*
X462800D01*
X422872Y452300D02*
X449072Y478500D01*
X410872Y452300D02*
X422872D01*
X410872D02*
X410872D01*
X407750Y449178D02*
X410872Y452300D01*
X449900Y476500D02*
X466100D01*
X423700Y450300D02*
X449900Y476500D01*
X411700Y450300D02*
X423700D01*
X459300Y472500D02*
X466100Y465700D01*
X451557Y472500D02*
X459300D01*
X466100Y464500D02*
Y465700D01*
X425357Y446300D02*
X451557Y472500D01*
X413357Y446300D02*
X425357D01*
X409407Y442350D02*
X413357Y446300D01*
X409407Y442350D02*
X409993Y442936D01*
X409407Y442350D02*
X409407D01*
X409200Y442300D02*
X409250Y442350D01*
X409407D01*
X462100Y474500D02*
X466100Y470500D01*
X450728Y474500D02*
X462100D01*
X424528Y448300D02*
X450728Y474500D01*
X412528Y448300D02*
X424528D01*
X332300Y438600D02*
X334800Y441100D01*
X328500Y435050D02*
Y456400D01*
Y435050D02*
X328750Y434800D01*
X322350Y453700D02*
X322700D01*
X322200Y453550D02*
X322350Y453700D01*
X334800Y441100D02*
Y458900D01*
X322200Y435100D02*
Y453550D01*
X318100Y569700D02*
X332100D01*
X320300Y565900D02*
X334700D01*
X320200Y565800D02*
X320300Y565900D01*
X332400Y561400D02*
X336700D01*
X332100Y569700D02*
X332200Y569600D01*
X402200Y571300D02*
Y571550D01*
X389150Y584600D02*
X402200Y571550D01*
X332200Y569600D02*
X332500Y569900D01*
X320300Y561600D02*
X320500Y561400D01*
X332400D01*
X320300D02*
Y561600D01*
X590300Y689048D02*
Y749500D01*
X536200Y803600D02*
X590300Y749500D01*
X473500Y807700D02*
Y812874D01*
Y807700D02*
X477600Y803600D01*
X452974Y833400D02*
X473500Y812874D01*
X477600Y803600D02*
X536200D01*
X580252Y679000D02*
X590300Y689048D01*
X236564Y833400D02*
X452974D01*
X225300Y822136D02*
X236564Y833400D01*
X225300Y813200D02*
Y822136D01*
X332000Y599300D02*
Y601236D01*
X272936Y649300D02*
X307636Y614600D01*
X318636D01*
X241000Y657500D02*
X249200Y649300D01*
X272936D01*
X318636Y614600D02*
X332000Y601236D01*
X580252Y689000D02*
X587800Y696548D01*
Y748464D01*
X535164Y801100D02*
X587800Y748464D01*
X463500Y812874D02*
X475274Y801100D01*
X535164D01*
X445474Y830900D02*
X463500Y812874D01*
X237600Y830900D02*
X445474D01*
X235500Y828800D02*
X237600Y830900D01*
X235500Y825100D02*
Y828800D01*
X317600Y612100D02*
X321900Y607800D01*
Y599200D02*
Y607800D01*
X271900Y646800D02*
X306600Y612100D01*
X317600D01*
X231000Y657500D02*
X241700Y646800D01*
X271900D01*
X354800Y584600D02*
X389150D01*
X352000Y587400D02*
X354800Y584600D01*
X352000Y587400D02*
Y599000D01*
X341800Y594064D02*
Y599200D01*
Y594064D02*
Y599200D01*
X353764Y582100D02*
X386700D01*
X397400Y571400D01*
X341800Y594064D02*
X353764Y582100D01*
X341800Y594064D02*
Y599200D01*
X283600Y734600D02*
Y734900D01*
Y734600D02*
X293100Y725100D01*
Y718200D02*
Y725100D01*
X291300Y716400D02*
X293100Y718200D01*
X291300Y707200D02*
Y716400D01*
X282000Y559100D02*
X282050Y559050D01*
X282200Y558900D01*
X242300Y559100D02*
X282000D01*
X242300D02*
X282000D01*
X282050Y559050D02*
X282200Y558900D01*
X282000Y559100D02*
X282050Y559050D01*
X139400Y646500D02*
Y663500D01*
X389100Y562700D02*
X429100D01*
X502000Y408700D02*
Y409000D01*
X320100Y557100D02*
X332900D01*
X302700Y716700D02*
Y729200D01*
X296200Y710200D02*
X302700Y716700D01*
X296200Y700800D02*
Y710200D01*
X397900Y619500D02*
X409300D01*
X320200Y574600D02*
X332000D01*
X251000Y655699D02*
Y657500D01*
X461300Y536600D02*
Y567900D01*
X467300Y536600D02*
Y567900D01*
X25Y534615D02*
Y601441D01*
X3550Y511320D02*
X39395Y395580D01*
Y247548D02*
Y395580D01*
X8623Y154889D02*
X39395Y247548D01*
X27305Y129000D02*
X681407D01*
X669316Y247548D02*
X700089Y154889D01*
X669316Y247548D02*
Y395580D01*
X705162Y511320D01*
X708686Y534615D02*
Y601441D01*
X708682Y601920D02*
X708686Y601441D01*
X708677Y602161D02*
X708682Y601920D01*
X708670Y602404D02*
X708677Y602161D01*
X708661Y602649D02*
X708670Y602404D01*
X708649Y602895D02*
X708661Y602649D01*
X708636Y603142D02*
X708649Y602895D01*
X708621Y603391D02*
X708636Y603142D01*
X708603Y603641D02*
X708621Y603391D01*
X708584Y603892D02*
X708603Y603641D01*
X708563Y604145D02*
X708584Y603892D01*
X708539Y604399D02*
X708563Y604145D01*
X708514Y604654D02*
X708539Y604399D01*
X708487Y604911D02*
X708514Y604654D01*
X708458Y605169D02*
X708487Y604911D01*
X708427Y605429D02*
X708458Y605169D01*
X708394Y605689D02*
X708427Y605429D01*
X708359Y605951D02*
X708394Y605689D01*
X708322Y606214D02*
X708359Y605951D01*
X708283Y606479D02*
X708322Y606214D01*
X708243Y606745D02*
X708283Y606479D01*
X708200Y607012D02*
X708243Y606745D01*
X708156Y607280D02*
X708200Y607012D01*
X708110Y607549D02*
X708156Y607280D01*
X708062Y607820D02*
X708110Y607549D01*
X708012Y608092D02*
X708062Y607820D01*
X707961Y608364D02*
X708012Y608092D01*
X707907Y608639D02*
X707961Y608364D01*
X707852Y608914D02*
X707907Y608639D01*
X707795Y609190D02*
X707852Y608914D01*
X707736Y609468D02*
X707795Y609190D01*
X707676Y609747D02*
X707736Y609468D01*
X707614Y610026D02*
X707676Y609747D01*
X707550Y610307D02*
X707614Y610026D01*
X707484Y610589D02*
X707550Y610307D01*
X707417Y610872D02*
X707484Y610589D01*
X707347Y611157D02*
X707417Y610872D01*
X707277Y611442D02*
X707347Y611157D01*
X707204Y611728D02*
X707277Y611442D01*
X707130Y612015D02*
X707204Y611728D01*
X707054Y612304D02*
X707130Y612015D01*
X706977Y612593D02*
X707054Y612304D01*
X706897Y612883D02*
X706977Y612593D01*
X706817Y613175D02*
X706897Y612883D01*
X706734Y613467D02*
X706817Y613175D01*
X706650Y613760D02*
X706734Y613467D01*
X706565Y614055D02*
X706650Y613760D01*
X706477Y614350D02*
X706565Y614055D01*
X706389Y614646D02*
X706477Y614350D01*
X706298Y614943D02*
X706389Y614646D01*
X706206Y615241D02*
X706298Y614943D01*
X706113Y615540D02*
X706206Y615241D01*
X706018Y615840D02*
X706113Y615540D01*
X705921Y616140D02*
X706018Y615840D01*
X705823Y616442D02*
X705921Y616140D01*
X705724Y616744D02*
X705823Y616442D01*
X705623Y617047D02*
X705724Y616744D01*
X705520Y617352D02*
X705623Y617047D01*
X705416Y617656D02*
X705520Y617352D01*
X705311Y617962D02*
X705416Y617656D01*
X705204Y618269D02*
X705311Y617962D01*
X705095Y618576D02*
X705204Y618269D01*
X704985Y618884D02*
X705095Y618576D01*
X704874Y619193D02*
X704985Y618884D01*
X704762Y619503D02*
X704874Y619193D01*
X704648Y619813D02*
X704762Y619503D01*
X704532Y620124D02*
X704648Y619813D01*
X704415Y620436D02*
X704532Y620124D01*
X704297Y620748D02*
X704415Y620436D01*
X704177Y621062D02*
X704297Y620748D01*
X704057Y621376D02*
X704177Y621062D01*
X703934Y621690D02*
X704057Y621376D01*
X703811Y622006D02*
X703934Y621690D01*
X703686Y622322D02*
X703811Y622006D01*
X703560Y622638D02*
X703686Y622322D01*
X703432Y622956D02*
X703560Y622638D01*
X703303Y623273D02*
X703432Y622956D01*
X703173Y623592D02*
X703303Y623273D01*
X703042Y623911D02*
X703173Y623592D01*
X702909Y624231D02*
X703042Y623911D01*
X702776Y624551D02*
X702909Y624231D01*
X702641Y624872D02*
X702776Y624551D01*
X702504Y625193D02*
X702641Y624872D01*
X702367Y625515D02*
X702504Y625193D01*
X702228Y625838D02*
X702367Y625515D01*
X702088Y626161D02*
X702228Y625838D01*
X701947Y626485D02*
X702088Y626161D01*
X701805Y626809D02*
X701947Y626485D01*
X701662Y627133D02*
X701805Y626809D01*
X701517Y627458D02*
X701662Y627133D01*
X701371Y627784D02*
X701517Y627458D01*
X701225Y628110D02*
X701371Y627784D01*
X701077Y628436D02*
X701225Y628110D01*
X700928Y628763D02*
X701077Y628436D01*
X700778Y629091D02*
X700928Y628763D01*
X700626Y629418D02*
X700778Y629091D01*
X700474Y629746D02*
X700626Y629418D01*
X700321Y630075D02*
X700474Y629746D01*
X700166Y630404D02*
X700321Y630075D01*
X700011Y630733D02*
X700166Y630404D01*
X699854Y631063D02*
X700011Y630733D01*
X699697Y631393D02*
X699854Y631063D01*
X699538Y631723D02*
X699697Y631393D01*
X699379Y632054D02*
X699538Y631723D01*
X699218Y632385D02*
X699379Y632054D01*
X699057Y632716D02*
X699218Y632385D01*
X698894Y633048D02*
X699057Y632716D01*
X698731Y633380D02*
X698894Y633048D01*
X698567Y633712D02*
X698731Y633380D01*
X698401Y634044D02*
X698567Y633712D01*
X698235Y634377D02*
X698401Y634044D01*
X698068Y634710D02*
X698235Y634377D01*
X697900Y635043D02*
X698068Y634710D01*
X697731Y635377D02*
X697900Y635043D01*
X697561Y635710D02*
X697731Y635377D01*
X697390Y636044D02*
X697561Y635710D01*
X697219Y636378D02*
X697390Y636044D01*
X697046Y636712D02*
X697219Y636378D01*
X696873Y637047D02*
X697046Y636712D01*
X696699Y637381D02*
X696873Y637047D01*
X696524Y637716D02*
X696699Y637381D01*
X696348Y638050D02*
X696524Y637716D01*
X696172Y638385D02*
X696348Y638050D01*
X695994Y638720D02*
X696172Y638385D01*
X695637Y639391D02*
X695994Y638720D01*
X695277Y640061D02*
X695637Y639391D01*
X694914Y640732D02*
X695277Y640061D01*
X694548Y641403D02*
X694914Y640732D01*
X694180Y642074D02*
X694548Y641403D01*
X693808Y642745D02*
X694180Y642074D01*
X693434Y643415D02*
X693808Y642745D01*
X693058Y644086D02*
X693434Y643415D01*
X692679Y644756D02*
X693058Y644086D01*
X692298Y645426D02*
X692679Y644756D01*
X691914Y646095D02*
X692298Y645426D01*
X691528Y646764D02*
X691914Y646095D01*
X691140Y647432D02*
X691528Y646764D01*
X690750Y648100D02*
X691140Y647432D01*
X690358Y648766D02*
X690750Y648100D01*
X689965Y649432D02*
X690358Y648766D01*
X689569Y650096D02*
X689965Y649432D01*
X689172Y650760D02*
X689569Y650096D01*
X688773Y651422D02*
X689172Y650760D01*
X688373Y652083D02*
X688773Y651422D01*
X687971Y652743D02*
X688373Y652083D01*
X687568Y653401D02*
X687971Y652743D01*
X687163Y654058D02*
X687568Y653401D01*
X686758Y654713D02*
X687163Y654058D01*
X686147Y655692D02*
X686758Y654713D01*
X685535Y656667D02*
X686147Y655692D01*
X684920Y657637D02*
X685535Y656667D01*
X684304Y658603D02*
X684920Y657637D01*
X683687Y659564D02*
X684304Y658603D01*
X682862Y660836D02*
X683687Y659564D01*
X682035Y662099D02*
X682862Y660836D01*
X681002Y663661D02*
X682035Y662099D01*
X678938Y666729D02*
X681002Y663661D01*
X676072Y670879D02*
X678938Y666729D01*
X675060Y672315D02*
X676072Y670879D01*
X674256Y673444D02*
X675060Y672315D01*
X673657Y674280D02*
X674256Y673444D01*
X673061Y675106D02*
X673657Y674280D01*
X672469Y675920D02*
X673061Y675106D01*
X672077Y676458D02*
X672469Y675920D01*
X671687Y676990D02*
X672077Y676458D01*
X671299Y677518D02*
X671687Y676990D01*
X670912Y678040D02*
X671299Y677518D01*
X670720Y678300D02*
X670912Y678040D01*
X669363Y680119D02*
X670720Y678300D01*
X667993Y681939D02*
X669363Y680119D01*
X666610Y683759D02*
X667993Y681939D01*
X665213Y685579D02*
X666610Y683759D01*
X663803Y687400D02*
X665213Y685579D01*
X662379Y689221D02*
X663803Y687400D01*
X660941Y691042D02*
X662379Y689221D01*
X659490Y692863D02*
X660941Y691042D01*
X658026Y694685D02*
X659490Y692863D01*
X656548Y696507D02*
X658026Y694685D01*
X655057Y698329D02*
X656548Y696507D01*
X653552Y700152D02*
X655057Y698329D01*
X652034Y701975D02*
X653552Y700152D01*
X650502Y703798D02*
X652034Y701975D01*
X648957Y705621D02*
X650502Y703798D01*
X647399Y707444D02*
X648957Y705621D01*
X645827Y709268D02*
X647399Y707444D01*
X644241Y711092D02*
X645827Y709268D01*
X642642Y712916D02*
X644241Y711092D01*
X641030Y714741D02*
X642642Y712916D01*
X639404Y716565D02*
X641030Y714741D01*
X637765Y718390D02*
X639404Y716565D01*
X636113Y720215D02*
X637765Y718390D01*
X634447Y722040D02*
X636113Y720215D01*
X632768Y723866D02*
X634447Y722040D01*
X631075Y725692D02*
X632768Y723866D01*
X629369Y727517D02*
X631075Y725692D01*
X627650Y729343D02*
X629369Y727517D01*
X625917Y731170D02*
X627650Y729343D01*
X624171Y732996D02*
X625917Y731170D01*
X622411Y734822D02*
X624171Y732996D01*
X620638Y736649D02*
X622411Y734822D01*
X618852Y738476D02*
X620638Y736649D01*
X617052Y740303D02*
X618852Y738476D01*
X615239Y742130D02*
X617052Y740303D01*
X613936Y743435D02*
X615239Y742130D01*
X613676Y743695D02*
X613936Y743435D01*
X613416Y743955D02*
X613676Y743695D01*
X613156Y744214D02*
X613416Y743955D01*
X612897Y744472D02*
X613156Y744214D01*
X612638Y744730D02*
X612897Y744472D01*
X612380Y744988D02*
X612638Y744730D01*
X612122Y745245D02*
X612380Y744988D01*
X611864Y745501D02*
X612122Y745245D01*
X611606Y745757D02*
X611864Y745501D01*
X611349Y746012D02*
X611606Y745757D01*
X611093Y746267D02*
X611349Y746012D01*
X610836Y746521D02*
X611093Y746267D01*
X610580Y746774D02*
X610836Y746521D01*
X610325Y747028D02*
X610580Y746774D01*
X610069Y747280D02*
X610325Y747028D01*
X609814Y747532D02*
X610069Y747280D01*
X609560Y747784D02*
X609814Y747532D01*
X609305Y748035D02*
X609560Y747784D01*
X609051Y748286D02*
X609305Y748035D01*
X608797Y748536D02*
X609051Y748286D01*
X608544Y748785D02*
X608797Y748536D01*
X608291Y749034D02*
X608544Y748785D01*
X608038Y749283D02*
X608291Y749034D01*
X607786Y749531D02*
X608038Y749283D01*
X607533Y749779D02*
X607786Y749531D01*
X607281Y750026D02*
X607533Y749779D01*
X607030Y750273D02*
X607281Y750026D01*
X606778Y750519D02*
X607030Y750273D01*
X606276Y751010D02*
X606778Y750519D01*
X605775Y751499D02*
X606276Y751010D01*
X605275Y751986D02*
X605775Y751499D01*
X604776Y752472D02*
X605275Y751986D01*
X604278Y752956D02*
X604776Y752472D01*
X603780Y753438D02*
X604278Y752956D01*
X603284Y753918D02*
X603780Y753438D01*
X602788Y754397D02*
X603284Y753918D01*
X602293Y754874D02*
X602788Y754397D01*
X601799Y755350D02*
X602293Y754874D01*
X601306Y755823D02*
X601799Y755350D01*
X600813Y756296D02*
X601306Y755823D01*
X600320Y756767D02*
X600813Y756296D01*
X599829Y757236D02*
X600320Y756767D01*
X599338Y757704D02*
X599829Y757236D01*
X598847Y758170D02*
X599338Y757704D01*
X598357Y758635D02*
X598847Y758170D01*
X597867Y759099D02*
X598357Y758635D01*
X597377Y759561D02*
X597867Y759099D01*
X596888Y760022D02*
X597377Y759561D01*
X596399Y760481D02*
X596888Y760022D01*
X595911Y760940D02*
X596399Y760481D01*
X595422Y761397D02*
X595911Y760940D01*
X594934Y761853D02*
X595422Y761397D01*
X594446Y762307D02*
X594934Y761853D01*
X593958Y762761D02*
X594446Y762307D01*
X593470Y763213D02*
X593958Y762761D01*
X592738Y763890D02*
X593470Y763213D01*
X592006Y764564D02*
X592738Y763890D01*
X591274Y765236D02*
X592006Y764564D01*
X590542Y765905D02*
X591274Y765236D01*
X589809Y766573D02*
X590542Y765905D01*
X589076Y767239D02*
X589809Y766573D01*
X588341Y767902D02*
X589076Y767239D01*
X587361Y768785D02*
X588341Y767902D01*
X586379Y769664D02*
X587361Y768785D01*
X585395Y770540D02*
X586379Y769664D01*
X584161Y771632D02*
X585395Y770540D01*
X582674Y772938D02*
X584161Y771632D01*
X580431Y774889D02*
X582674Y772938D01*
X570956Y782866D02*
X572786Y781357D01*
X569636Y783944D02*
X570956Y782866D01*
X568304Y785025D02*
X569636Y783944D01*
X567231Y785890D02*
X568304Y785025D01*
X566150Y786758D02*
X567231Y785890D01*
X565060Y787627D02*
X566150Y786758D01*
X564237Y788280D02*
X565060Y787627D01*
X563410Y788934D02*
X564237Y788280D01*
X562577Y789590D02*
X563410Y788934D01*
X561739Y790247D02*
X562577Y789590D01*
X560896Y790905D02*
X561739Y790247D01*
X560047Y791565D02*
X560896Y790905D01*
X559193Y792227D02*
X560047Y791565D01*
X558332Y792891D02*
X559193Y792227D01*
X557467Y793556D02*
X558332Y792891D01*
X556886Y794001D02*
X557467Y793556D01*
X556303Y794447D02*
X556886Y794001D01*
X555717Y794893D02*
X556303Y794447D01*
X555128Y795341D02*
X555717Y794893D01*
X554537Y795789D02*
X555128Y795341D01*
X553942Y796239D02*
X554537Y795789D01*
X553345Y796690D02*
X553942Y796239D01*
X552745Y797141D02*
X553345Y796690D01*
X552142Y797594D02*
X552745Y797141D01*
X551535Y798048D02*
X552142Y797594D01*
X550926Y798503D02*
X551535Y798048D01*
X550314Y798960D02*
X550926Y798503D01*
X549699Y799417D02*
X550314Y798960D01*
X549080Y799876D02*
X549699Y799417D01*
X548771Y800105D02*
X549080Y799876D01*
X548465Y800332D02*
X548771Y800105D01*
X548161Y800557D02*
X548465Y800332D01*
X547860Y800780D02*
X548161Y800557D01*
X547561Y801002D02*
X547860Y800780D01*
X547265Y801222D02*
X547561Y801002D01*
X546970Y801440D02*
X547265Y801222D01*
X546678Y801656D02*
X546970Y801440D01*
X546388Y801871D02*
X546678Y801656D01*
X546100Y802084D02*
X546388Y801871D01*
X545815Y802295D02*
X546100Y802084D01*
X545531Y802505D02*
X545815Y802295D01*
X545249Y802713D02*
X545531Y802505D01*
X544969Y802920D02*
X545249Y802713D01*
X544691Y803125D02*
X544969Y802920D01*
X544415Y803329D02*
X544691Y803125D01*
X544140Y803531D02*
X544415Y803329D01*
X543867Y803732D02*
X544140Y803531D01*
X543596Y803932D02*
X543867Y803732D01*
X543326Y804130D02*
X543596Y803932D01*
X543058Y804327D02*
X543326Y804130D01*
X542791Y804523D02*
X543058Y804327D01*
X542526Y804718D02*
X542791Y804523D01*
X542262Y804911D02*
X542526Y804718D01*
X541999Y805103D02*
X542262Y804911D01*
X541738Y805294D02*
X541999Y805103D01*
X541478Y805484D02*
X541738Y805294D01*
X541219Y805673D02*
X541478Y805484D01*
X540960Y805860D02*
X541219Y805673D01*
X540703Y806047D02*
X540960Y805860D01*
X540447Y806233D02*
X540703Y806047D01*
X540192Y806417D02*
X540447Y806233D01*
X539938Y806601D02*
X540192Y806417D01*
X539685Y806784D02*
X539938Y806601D01*
X539432Y806966D02*
X539685Y806784D01*
X539180Y807147D02*
X539432Y806966D01*
X538928Y807327D02*
X539180Y807147D01*
X538678Y807507D02*
X538928Y807327D01*
X538427Y807686D02*
X538678Y807507D01*
X538178Y807864D02*
X538427Y807686D01*
X537928Y808041D02*
X538178Y807864D01*
X537679Y808217D02*
X537928Y808041D01*
X537431Y808393D02*
X537679Y808217D01*
X537182Y808569D02*
X537431Y808393D01*
X536934Y808744D02*
X537182Y808569D01*
X536686Y808918D02*
X536934Y808744D01*
X536438Y809091D02*
X536686Y808918D01*
X536190Y809265D02*
X536438Y809091D01*
X535942Y809437D02*
X536190Y809265D01*
X535695Y809610D02*
X535942Y809437D01*
X535446Y809782D02*
X535695Y809610D01*
X535198Y809953D02*
X535446Y809782D01*
X534950Y810124D02*
X535198Y809953D01*
X534701Y810295D02*
X534950Y810124D01*
X534452Y810466D02*
X534701Y810295D01*
X534203Y810636D02*
X534452Y810466D01*
X533953Y810806D02*
X534203Y810636D01*
X533451Y811146D02*
X533953Y810806D01*
X532947Y811485D02*
X533451Y811146D01*
X532441Y811824D02*
X532947Y811485D01*
X531417Y812502D02*
X532441Y811824D01*
X529584Y813694D02*
X531417Y812502D01*
X529048Y814037D02*
X529584Y813694D01*
X528506Y814382D02*
X529048Y814037D01*
X527958Y814728D02*
X528506Y814382D01*
X527402Y815076D02*
X527958Y814728D01*
X527122Y815251D02*
X527402Y815076D01*
X526839Y815427D02*
X527122Y815251D01*
X526555Y815603D02*
X526839Y815427D01*
X526269Y815780D02*
X526555Y815603D01*
X525980Y815957D02*
X526269Y815780D01*
X525690Y816135D02*
X525980Y815957D01*
X525397Y816314D02*
X525690Y816135D01*
X525102Y816494D02*
X525397Y816314D01*
X524805Y816674D02*
X525102Y816494D01*
X524505Y816856D02*
X524805Y816674D01*
X524203Y817038D02*
X524505Y816856D01*
X523898Y817221D02*
X524203Y817038D01*
X523591Y817405D02*
X523898Y817221D01*
X523282Y817590D02*
X523591Y817405D01*
X522970Y817776D02*
X523282Y817590D01*
X522655Y817963D02*
X522970Y817776D01*
X522337Y818151D02*
X522655Y817963D01*
X522017Y818340D02*
X522337Y818151D01*
X521694Y818530D02*
X522017Y818340D01*
X521368Y818721D02*
X521694Y818530D01*
X521039Y818914D02*
X521368Y818721D01*
X520707Y819108D02*
X521039Y818914D01*
X520372Y819302D02*
X520707Y819108D01*
X520034Y819499D02*
X520372Y819302D01*
X519692Y819696D02*
X520034Y819499D01*
X519348Y819895D02*
X519692Y819696D01*
X519000Y820095D02*
X519348Y819895D01*
X518649Y820296D02*
X519000Y820095D01*
X518294Y820499D02*
X518649Y820296D01*
X517937Y820703D02*
X518294Y820499D01*
X517575Y820909D02*
X517937Y820703D01*
X517210Y821116D02*
X517575Y820909D01*
X516842Y821325D02*
X517210Y821116D01*
X516469Y821535D02*
X516842Y821325D01*
X516094Y821747D02*
X516469Y821535D01*
X515714Y821961D02*
X516094Y821747D01*
X515330Y822176D02*
X515714Y821961D01*
X514943Y822393D02*
X515330Y822176D01*
X514552Y822611D02*
X514943Y822393D01*
X514157Y822831D02*
X514552Y822611D01*
X513757Y823053D02*
X514157Y822831D01*
X513354Y823277D02*
X513757Y823053D01*
X512947Y823503D02*
X513354Y823277D01*
X512538Y823728D02*
X512947Y823503D01*
X512130Y823952D02*
X512538Y823728D01*
X511724Y824174D02*
X512130Y823952D01*
X511319Y824394D02*
X511724Y824174D01*
X510916Y824613D02*
X511319Y824394D01*
X510514Y824829D02*
X510916Y824613D01*
X510113Y825044D02*
X510514Y824829D01*
X509714Y825257D02*
X510113Y825044D01*
X509316Y825468D02*
X509714Y825257D01*
X508920Y825678D02*
X509316Y825468D01*
X508525Y825885D02*
X508920Y825678D01*
X508131Y826091D02*
X508525Y825885D01*
X507738Y826295D02*
X508131Y826091D01*
X507347Y826497D02*
X507738Y826295D01*
X506958Y826697D02*
X507347Y826497D01*
X506569Y826895D02*
X506958Y826697D01*
X506182Y827092D02*
X506569Y826895D01*
X505797Y827287D02*
X506182Y827092D01*
X505413Y827480D02*
X505797Y827287D01*
X505030Y827671D02*
X505413Y827480D01*
X504648Y827860D02*
X505030Y827671D01*
X504268Y828048D02*
X504648Y827860D01*
X503890Y828234D02*
X504268Y828048D01*
X503512Y828418D02*
X503890Y828234D01*
X503136Y828600D02*
X503512Y828418D01*
X502762Y828780D02*
X503136Y828600D01*
X502389Y828959D02*
X502762Y828780D01*
X502017Y829135D02*
X502389Y828959D01*
X501646Y829310D02*
X502017Y829135D01*
X501277Y829483D02*
X501646Y829310D01*
X500909Y829655D02*
X501277Y829483D01*
X500543Y829824D02*
X500909Y829655D01*
X500178Y829992D02*
X500543Y829824D01*
X499815Y830158D02*
X500178Y829992D01*
X499452Y830322D02*
X499815Y830158D01*
X499091Y830484D02*
X499452Y830322D01*
X498732Y830644D02*
X499091Y830484D01*
X498374Y830803D02*
X498732Y830644D01*
X498017Y830960D02*
X498374Y830803D01*
X497662Y831114D02*
X498017Y830960D01*
X497308Y831268D02*
X497662Y831114D01*
X496955Y831419D02*
X497308Y831268D01*
X496604Y831568D02*
X496955Y831419D01*
X496254Y831716D02*
X496604Y831568D01*
X495905Y831862D02*
X496254Y831716D01*
X495558Y832006D02*
X495905Y831862D01*
X495212Y832148D02*
X495558Y832006D01*
X494868Y832289D02*
X495212Y832148D01*
X494525Y832427D02*
X494868Y832289D01*
X494183Y832564D02*
X494525Y832427D01*
X493843Y832699D02*
X494183Y832564D01*
X493504Y832833D02*
X493843Y832699D01*
X493166Y832964D02*
X493504Y832833D01*
X492830Y833094D02*
X493166Y832964D01*
X492495Y833221D02*
X492830Y833094D01*
X492162Y833347D02*
X492495Y833221D01*
X491830Y833471D02*
X492162Y833347D01*
X491499Y833594D02*
X491830Y833471D01*
X491170Y833714D02*
X491499Y833594D01*
X490842Y833833D02*
X491170Y833714D01*
X490515Y833950D02*
X490842Y833833D01*
X490190Y834065D02*
X490515Y833950D01*
X489866Y834178D02*
X490190Y834065D01*
X489544Y834290D02*
X489866Y834178D01*
X489223Y834399D02*
X489544Y834290D01*
X488903Y834507D02*
X489223Y834399D01*
X488585Y834613D02*
X488903Y834507D01*
X488268Y834717D02*
X488585Y834613D01*
X487952Y834820D02*
X488268Y834717D01*
X487638Y834920D02*
X487952Y834820D01*
X487325Y835019D02*
X487638Y834920D01*
X487013Y835116D02*
X487325Y835019D01*
X486703Y835211D02*
X487013Y835116D01*
X486394Y835305D02*
X486703Y835211D01*
X486087Y835396D02*
X486394Y835305D01*
X485781Y835486D02*
X486087Y835396D01*
X485476Y835574D02*
X485781Y835486D01*
X485173Y835660D02*
X485476Y835574D01*
X484871Y835744D02*
X485173Y835660D01*
X484571Y835826D02*
X484871Y835744D01*
X484272Y835907D02*
X484571Y835826D01*
X483974Y835986D02*
X484272Y835907D01*
X483677Y836063D02*
X483974Y835986D01*
X483382Y836138D02*
X483677Y836063D01*
X483089Y836212D02*
X483382Y836138D01*
X482796Y836283D02*
X483089Y836212D01*
X482505Y836353D02*
X482796Y836283D01*
X482216Y836421D02*
X482505Y836353D01*
X481928Y836487D02*
X482216Y836421D01*
X481641Y836551D02*
X481928Y836487D01*
X481355Y836614D02*
X481641Y836551D01*
X481071Y836675D02*
X481355Y836614D01*
X480789Y836734D02*
X481071Y836675D01*
X480507Y836791D02*
X480789Y836734D01*
X480227Y836846D02*
X480507Y836791D01*
X479949Y836899D02*
X480227Y836846D01*
X479671Y836951D02*
X479949Y836899D01*
X479396Y837001D02*
X479671Y836951D01*
X479121Y837049D02*
X479396Y837001D01*
X478848Y837095D02*
X479121Y837049D01*
X478576Y837139D02*
X478848Y837095D01*
X478306Y837182D02*
X478576Y837139D01*
X478037Y837223D02*
X478306Y837182D01*
X477769Y837262D02*
X478037Y837223D01*
X477503Y837299D02*
X477769Y837262D01*
X477238Y837334D02*
X477503Y837299D01*
X476975Y837368D02*
X477238Y837334D01*
X476712Y837400D02*
X476975Y837368D01*
X476452Y837429D02*
X476712Y837400D01*
X476192Y837458D02*
X476452Y837429D01*
X475934Y837484D02*
X476192Y837458D01*
X475678Y837508D02*
X475934Y837484D01*
X475422Y837531D02*
X475678Y837508D01*
X475168Y837552D02*
X475422Y837531D01*
X474916Y837571D02*
X475168Y837552D01*
X474665Y837588D02*
X474916Y837571D01*
X474415Y837603D02*
X474665Y837588D01*
X474167Y837617D02*
X474415Y837603D01*
X473919Y837629D02*
X474167Y837617D01*
X473674Y837639D02*
X473919Y837629D01*
X473429Y837647D02*
X473674Y837639D01*
X473187Y837653D02*
X473429Y837647D01*
X472945Y837658D02*
X473187Y837653D01*
X472705Y837661D02*
X472945Y837658D01*
X472466Y837661D02*
X472705Y837661D01*
X236245Y837661D02*
X472466D01*
X235767Y837657D02*
X236245Y837661D01*
X235525Y837652D02*
X235767Y837657D01*
X235282Y837645D02*
X235525Y837652D01*
X235038Y837636D02*
X235282Y837645D01*
X234792Y837624D02*
X235038Y837636D01*
X234544Y837611D02*
X234792Y837624D01*
X234296Y837596D02*
X234544Y837611D01*
X234046Y837578D02*
X234296Y837596D01*
X233794Y837559D02*
X234046Y837578D01*
X233542Y837538D02*
X233794Y837559D01*
X233287Y837514D02*
X233542Y837538D01*
X233032Y837489D02*
X233287Y837514D01*
X232775Y837462D02*
X233032Y837489D01*
X232517Y837433D02*
X232775Y837462D01*
X232258Y837402D02*
X232517Y837433D01*
X231997Y837369D02*
X232258Y837402D01*
X231735Y837334D02*
X231997Y837369D01*
X231472Y837297D02*
X231735Y837334D01*
X231208Y837258D02*
X231472Y837297D01*
X230942Y837218D02*
X231208Y837258D01*
X230675Y837175D02*
X230942Y837218D01*
X230407Y837131D02*
X230675Y837175D01*
X230137Y837085D02*
X230407Y837131D01*
X229867Y837037D02*
X230137Y837085D01*
X229595Y836987D02*
X229867Y837037D01*
X229322Y836936D02*
X229595Y836987D01*
X229048Y836882D02*
X229322Y836936D01*
X228773Y836827D02*
X229048Y836882D01*
X228496Y836770D02*
X228773Y836827D01*
X228219Y836711D02*
X228496Y836770D01*
X227940Y836651D02*
X228219Y836711D01*
X227660Y836589D02*
X227940Y836651D01*
X227379Y836525D02*
X227660Y836589D01*
X227097Y836459D02*
X227379Y836525D01*
X226814Y836392D02*
X227097Y836459D01*
X226530Y836322D02*
X226814Y836392D01*
X226245Y836252D02*
X226530Y836322D01*
X225958Y836179D02*
X226245Y836252D01*
X225671Y836105D02*
X225958Y836179D01*
X225383Y836029D02*
X225671Y836105D01*
X225093Y835952D02*
X225383Y836029D01*
X224803Y835872D02*
X225093Y835952D01*
X224512Y835792D02*
X224803Y835872D01*
X224219Y835709D02*
X224512Y835792D01*
X223926Y835625D02*
X224219Y835709D01*
X223632Y835540D02*
X223926Y835625D01*
X223337Y835452D02*
X223632Y835540D01*
X223040Y835364D02*
X223337Y835452D01*
X222743Y835273D02*
X223040Y835364D01*
X222445Y835181D02*
X222743Y835273D01*
X222147Y835088D02*
X222445Y835181D01*
X221847Y834993D02*
X222147Y835088D01*
X221546Y834896D02*
X221847Y834993D01*
X221245Y834798D02*
X221546Y834896D01*
X220942Y834699D02*
X221245Y834798D01*
X220639Y834598D02*
X220942Y834699D01*
X220335Y834495D02*
X220639Y834598D01*
X220030Y834391D02*
X220335Y834495D01*
X219724Y834286D02*
X220030Y834391D01*
X219418Y834179D02*
X219724Y834286D01*
X219110Y834070D02*
X219418Y834179D01*
X218802Y833960D02*
X219110Y834070D01*
X218493Y833849D02*
X218802Y833960D01*
X218184Y833737D02*
X218493Y833849D01*
X217873Y833623D02*
X218184Y833737D01*
X217562Y833507D02*
X217873Y833623D01*
X217251Y833390D02*
X217562Y833507D01*
X216938Y833272D02*
X217251Y833390D01*
X216625Y833152D02*
X216938Y833272D01*
X216311Y833032D02*
X216625Y833152D01*
X215996Y832909D02*
X216311Y833032D01*
X215681Y832786D02*
X215996Y832909D01*
X215365Y832661D02*
X215681Y832786D01*
X215048Y832535D02*
X215365Y832661D01*
X214731Y832407D02*
X215048Y832535D01*
X214413Y832278D02*
X214731Y832407D01*
X214094Y832148D02*
X214413Y832278D01*
X213775Y832017D02*
X214094Y832148D01*
X213456Y831884D02*
X213775Y832017D01*
X213135Y831751D02*
X213456Y831884D01*
X212814Y831616D02*
X213135Y831751D01*
X212493Y831479D02*
X212814Y831616D01*
X212171Y831342D02*
X212493Y831479D01*
X211848Y831203D02*
X212171Y831342D01*
X211525Y831063D02*
X211848Y831203D01*
X211202Y830922D02*
X211525Y831063D01*
X210878Y830780D02*
X211202Y830922D01*
X210553Y830637D02*
X210878Y830780D01*
X210228Y830492D02*
X210553Y830637D01*
X209903Y830346D02*
X210228Y830492D01*
X209577Y830200D02*
X209903Y830346D01*
X209250Y830052D02*
X209577Y830200D01*
X208923Y829903D02*
X209250Y830052D01*
X208596Y829753D02*
X208923Y829903D01*
X208268Y829601D02*
X208596Y829753D01*
X207940Y829449D02*
X208268Y829601D01*
X207611Y829296D02*
X207940Y829449D01*
X207283Y829141D02*
X207611Y829296D01*
X206953Y828986D02*
X207283Y829141D01*
X206624Y828829D02*
X206953Y828986D01*
X206294Y828672D02*
X206624Y828829D01*
X205963Y828513D02*
X206294Y828672D01*
X205632Y828354D02*
X205963Y828513D01*
X205301Y828193D02*
X205632Y828354D01*
X204970Y828032D02*
X205301Y828193D01*
X204638Y827869D02*
X204970Y828032D01*
X204307Y827706D02*
X204638Y827869D01*
X203974Y827542D02*
X204307Y827706D01*
X203642Y827376D02*
X203974Y827542D01*
X203309Y827210D02*
X203642Y827376D01*
X202976Y827043D02*
X203309Y827210D01*
X202643Y826875D02*
X202976Y827043D01*
X202310Y826706D02*
X202643Y826875D01*
X201976Y826536D02*
X202310Y826706D01*
X201642Y826365D02*
X201976Y826536D01*
X201308Y826194D02*
X201642Y826365D01*
X200974Y826021D02*
X201308Y826194D01*
X200640Y825848D02*
X200974Y826021D01*
X200305Y825674D02*
X200640Y825848D01*
X199971Y825499D02*
X200305Y825674D01*
X199636Y825323D02*
X199971Y825499D01*
X199301Y825147D02*
X199636Y825323D01*
X198966Y824969D02*
X199301Y825147D01*
X198296Y824612D02*
X198966Y824969D01*
X197625Y824252D02*
X198296Y824612D01*
X196955Y823889D02*
X197625Y824252D01*
X196284Y823523D02*
X196955Y823889D01*
X195613Y823155D02*
X196284Y823523D01*
X194942Y822783D02*
X195613Y823155D01*
X194271Y822409D02*
X194942Y822783D01*
X193600Y822033D02*
X194271Y822409D01*
X192930Y821654D02*
X193600Y822033D01*
X192260Y821273D02*
X192930Y821654D01*
X191591Y820889D02*
X192260Y821273D01*
X190922Y820503D02*
X191591Y820889D01*
X190254Y820115D02*
X190922Y820503D01*
X189587Y819725D02*
X190254Y820115D01*
X188920Y819333D02*
X189587Y819725D01*
X188255Y818940D02*
X188920Y819333D01*
X187590Y818544D02*
X188255Y818940D01*
X186927Y818147D02*
X187590Y818544D01*
X186264Y817748D02*
X186927Y818147D01*
X185603Y817348D02*
X186264Y817748D01*
X184944Y816946D02*
X185603Y817348D01*
X184286Y816543D02*
X184944Y816946D01*
X183629Y816138D02*
X184286Y816543D01*
X182974Y815733D02*
X183629Y816138D01*
X181995Y815122D02*
X182974Y815733D01*
X181020Y814510D02*
X181995Y815122D01*
X180049Y813895D02*
X181020Y814510D01*
X179083Y813279D02*
X180049Y813895D01*
X178123Y812662D02*
X179083Y813279D01*
X176850Y811837D02*
X178123Y812662D01*
X175588Y811010D02*
X176850Y811837D01*
X174025Y809977D02*
X175588Y811010D01*
X170957Y807913D02*
X174025Y809977D01*
X166808Y805047D02*
X170957Y807913D01*
X165372Y804035D02*
X166808Y805047D01*
X164242Y803231D02*
X165372Y804035D01*
X163406Y802632D02*
X164242Y803231D01*
X162581Y802036D02*
X163406Y802632D01*
X161766Y801444D02*
X162581Y802036D01*
X161229Y801052D02*
X161766Y801444D01*
X160696Y800662D02*
X161229Y801052D01*
X160169Y800274D02*
X160696Y800662D01*
X159646Y799887D02*
X160169Y800274D01*
X157827Y798533D02*
X159646Y799887D01*
X156007Y797165D02*
X157827Y798533D01*
X154187Y795783D02*
X156007Y797165D01*
X152367Y794388D02*
X154187Y795783D01*
X150547Y792980D02*
X152367Y794388D01*
X148726Y791558D02*
X150547Y792980D01*
X146905Y790122D02*
X148726Y791558D01*
X145083Y788673D02*
X146905Y790122D01*
X143262Y787211D02*
X145083Y788673D01*
X141440Y785735D02*
X143262Y787211D01*
X139617Y784246D02*
X141440Y785735D01*
X137795Y782743D02*
X139617Y784246D01*
X135972Y781227D02*
X137795Y782743D01*
X134149Y779697D02*
X135972Y781227D01*
X132326Y778154D02*
X134149Y779697D01*
X130503Y776597D02*
X132326Y778154D01*
X128679Y775027D02*
X130503Y776597D01*
X126855Y773444D02*
X128679Y775027D01*
X125031Y771847D02*
X126855Y773444D01*
X123206Y770236D02*
X125031Y771847D01*
X121382Y768613D02*
X123206Y770236D01*
X119557Y766975D02*
X121382Y768613D01*
X117732Y765325D02*
X119557Y766975D01*
X115907Y763661D02*
X117732Y765325D01*
X114081Y761983D02*
X115907Y763661D01*
X112256Y760293D02*
X114081Y761983D01*
X110430Y758589D02*
X112256Y760293D01*
X108604Y756871D02*
X110430Y758589D01*
X106778Y755140D02*
X108604Y756871D01*
X104951Y753396D02*
X106778Y755140D01*
X103125Y751638D02*
X104951Y753396D01*
X101298Y749867D02*
X103125Y751638D01*
X99472Y748083D02*
X101298Y749867D01*
X97645Y746285D02*
X99472Y748083D01*
X95817Y744474D02*
X97645Y746285D01*
X94512Y743172D02*
X95817Y744474D01*
X94251Y742911D02*
X94512Y743172D01*
X93991Y742651D02*
X94251Y742911D01*
X93732Y742391D02*
X93991Y742651D01*
X93473Y742131D02*
X93732Y742391D01*
X93214Y741872D02*
X93473Y742131D01*
X92956Y741613D02*
X93214Y741872D01*
X92699Y741355D02*
X92956Y741613D01*
X92442Y741097D02*
X92699Y741355D01*
X92186Y740839D02*
X92442Y741097D01*
X91930Y740581D02*
X92186Y740839D01*
X91675Y740324D02*
X91930Y740581D01*
X91420Y740068D02*
X91675Y740324D01*
X91166Y739811D02*
X91420Y740068D01*
X90912Y739555D02*
X91166Y739811D01*
X90659Y739300D02*
X90912Y739555D01*
X90406Y739044D02*
X90659Y739300D01*
X90154Y738789D02*
X90406Y739044D01*
X89903Y738535D02*
X90154Y738789D01*
X89651Y738280D02*
X89903Y738535D01*
X89401Y738026D02*
X89651Y738280D01*
X89151Y737772D02*
X89401Y738026D01*
X88901Y737519D02*
X89151Y737772D01*
X88652Y737266D02*
X88901Y737519D01*
X88403Y737013D02*
X88652Y737266D01*
X88155Y736761D02*
X88403Y737013D01*
X87908Y736508D02*
X88155Y736761D01*
X87661Y736256D02*
X87908Y736508D01*
X87414Y736005D02*
X87661Y736256D01*
X87168Y735753D02*
X87414Y736005D01*
X86677Y735251D02*
X87168Y735753D01*
X86187Y734750D02*
X86677Y735251D01*
X85700Y734250D02*
X86187Y734750D01*
X85215Y733751D02*
X85700Y734250D01*
X84731Y733253D02*
X85215Y733751D01*
X84249Y732755D02*
X84731Y733253D01*
X83768Y732259D02*
X84249Y732755D01*
X83289Y731763D02*
X83768Y732259D01*
X82812Y731268D02*
X83289Y731763D01*
X82337Y730774D02*
X82812Y731268D01*
X81863Y730281D02*
X82337Y730774D01*
X81391Y729788D02*
X81863Y730281D01*
X80920Y729295D02*
X81391Y729788D01*
X80451Y728804D02*
X80920Y729295D01*
X79983Y728313D02*
X80451Y728804D01*
X79516Y727822D02*
X79983Y728313D01*
X79051Y727332D02*
X79516Y727822D01*
X78588Y726842D02*
X79051Y727332D01*
X78126Y726352D02*
X78588Y726842D01*
X77665Y725863D02*
X78126Y726352D01*
X77205Y725374D02*
X77665Y725863D01*
X76747Y724886D02*
X77205Y725374D01*
X76290Y724397D02*
X76747Y724886D01*
X75834Y723909D02*
X76290Y724397D01*
X75379Y723421D02*
X75834Y723909D01*
X74926Y722933D02*
X75379Y723421D01*
X74473Y722445D02*
X74926Y722933D01*
X73797Y721713D02*
X74473Y722445D01*
X73123Y720981D02*
X73797Y721713D01*
X72451Y720249D02*
X73123Y720981D01*
X71781Y719517D02*
X72451Y720249D01*
X71113Y718784D02*
X71781Y719517D01*
X70448Y718051D02*
X71113Y718784D01*
X69784Y717316D02*
X70448Y718051D01*
X68902Y716336D02*
X69784Y717316D01*
X68023Y715354D02*
X68902Y716336D01*
X67146Y714370D02*
X68023Y715354D01*
X66054Y713136D02*
X67146Y714370D01*
X64748Y711649D02*
X66054Y713136D01*
X62797Y709406D02*
X64748Y711649D01*
X54821Y699931D02*
X56329Y701761D01*
X53742Y698611D02*
X54821Y699931D01*
X52662Y697279D02*
X53742Y698611D01*
X51796Y696206D02*
X52662Y697279D01*
X50929Y695125D02*
X51796Y696206D01*
X50060Y694035D02*
X50929Y695125D01*
X49407Y693212D02*
X50060Y694035D01*
X48752Y692385D02*
X49407Y693212D01*
X48097Y691552D02*
X48752Y692385D01*
X47440Y690714D02*
X48097Y691552D01*
X46781Y689871D02*
X47440Y690714D01*
X46121Y689022D02*
X46781Y689871D01*
X45459Y688168D02*
X46121Y689022D01*
X44796Y687307D02*
X45459Y688168D01*
X44130Y686442D02*
X44796Y687307D01*
X43686Y685861D02*
X44130Y686442D01*
X43240Y685278D02*
X43686Y685861D01*
X42793Y684692D02*
X43240Y685278D01*
X42346Y684103D02*
X42793Y684692D01*
X41897Y683512D02*
X42346Y684103D01*
X41447Y682917D02*
X41897Y683512D01*
X40997Y682320D02*
X41447Y682917D01*
X40545Y681720D02*
X40997Y682320D01*
X40092Y681117D02*
X40545Y681720D01*
X39638Y680510D02*
X40092Y681117D01*
X39183Y679901D02*
X39638Y680510D01*
X38727Y679289D02*
X39183Y679901D01*
X38269Y678674D02*
X38727Y679289D01*
X37810Y678055D02*
X38269Y678674D01*
X37581Y677746D02*
X37810Y678055D01*
X37354Y677440D02*
X37581Y677746D01*
X37129Y677136D02*
X37354Y677440D01*
X36906Y676835D02*
X37129Y677136D01*
X36685Y676536D02*
X36906Y676835D01*
X36465Y676240D02*
X36685Y676536D01*
X36247Y675945D02*
X36465Y676240D01*
X36031Y675653D02*
X36247Y675945D01*
X35816Y675363D02*
X36031Y675653D01*
X35603Y675075D02*
X35816Y675363D01*
X35391Y674790D02*
X35603Y675075D01*
X35182Y674506D02*
X35391Y674790D01*
X34973Y674224D02*
X35182Y674506D01*
X34767Y673944D02*
X34973Y674224D01*
X34561Y673666D02*
X34767Y673944D01*
X34357Y673390D02*
X34561Y673666D01*
X34155Y673115D02*
X34357Y673390D01*
X33954Y672842D02*
X34155Y673115D01*
X33754Y672571D02*
X33954Y672842D01*
X33556Y672301D02*
X33754Y672571D01*
X33359Y672033D02*
X33556Y672301D01*
X33163Y671766D02*
X33359Y672033D01*
X32969Y671501D02*
X33163Y671766D01*
X32775Y671237D02*
X32969Y671501D01*
X32583Y670974D02*
X32775Y671237D01*
X32392Y670713D02*
X32583Y670974D01*
X32202Y670453D02*
X32392Y670713D01*
X32014Y670194D02*
X32202Y670453D01*
X31826Y669935D02*
X32014Y670194D01*
X31639Y669678D02*
X31826Y669935D01*
X31454Y669422D02*
X31639Y669678D01*
X31269Y669167D02*
X31454Y669422D01*
X31085Y668913D02*
X31269Y669167D01*
X30902Y668660D02*
X31085Y668913D01*
X30720Y668407D02*
X30902Y668660D01*
X30539Y668155D02*
X30720Y668407D01*
X30359Y667903D02*
X30539Y668155D01*
X30180Y667653D02*
X30359Y667903D01*
X30001Y667402D02*
X30180Y667653D01*
X29823Y667153D02*
X30001Y667402D01*
X29646Y666903D02*
X29823Y667153D01*
X29469Y666654D02*
X29646Y666903D01*
X29293Y666406D02*
X29469Y666654D01*
X29118Y666157D02*
X29293Y666406D01*
X28943Y665909D02*
X29118Y666157D01*
X28769Y665661D02*
X28943Y665909D01*
X28595Y665413D02*
X28769Y665661D01*
X28422Y665165D02*
X28595Y665413D01*
X28249Y664917D02*
X28422Y665165D01*
X28077Y664670D02*
X28249Y664917D01*
X27905Y664421D02*
X28077Y664670D01*
X27733Y664173D02*
X27905Y664421D01*
X27562Y663925D02*
X27733Y664173D01*
X27391Y663676D02*
X27562Y663925D01*
X27220Y663427D02*
X27391Y663676D01*
X27050Y663178D02*
X27220Y663427D01*
X26880Y662928D02*
X27050Y663178D01*
X26540Y662426D02*
X26880Y662928D01*
X26201Y661922D02*
X26540Y662426D01*
X25862Y661416D02*
X26201Y661922D01*
X25184Y660392D02*
X25862Y661416D01*
X23992Y658559D02*
X25184Y660392D01*
X23649Y658023D02*
X23992Y658559D01*
X23305Y657481D02*
X23649Y658023D01*
X22959Y656933D02*
X23305Y657481D01*
X22610Y656377D02*
X22959Y656933D01*
X22435Y656097D02*
X22610Y656377D01*
X22260Y655814D02*
X22435Y656097D01*
X22084Y655530D02*
X22260Y655814D01*
X21907Y655244D02*
X22084Y655530D01*
X21729Y654955D02*
X21907Y655244D01*
X21551Y654665D02*
X21729Y654955D01*
X21372Y654372D02*
X21551Y654665D01*
X21193Y654077D02*
X21372Y654372D01*
X21012Y653780D02*
X21193Y654077D01*
X20831Y653480D02*
X21012Y653780D01*
X20648Y653178D02*
X20831Y653480D01*
X20465Y652873D02*
X20648Y653178D01*
X20281Y652566D02*
X20465Y652873D01*
X20096Y652257D02*
X20281Y652566D01*
X19910Y651945D02*
X20096Y652257D01*
X19723Y651630D02*
X19910Y651945D01*
X19535Y651312D02*
X19723Y651630D01*
X19346Y650992D02*
X19535Y651312D01*
X19156Y650669D02*
X19346Y650992D01*
X18965Y650343D02*
X19156Y650669D01*
X18772Y650014D02*
X18965Y650343D01*
X18579Y649682D02*
X18772Y650014D01*
X18384Y649347D02*
X18579Y649682D01*
X18188Y649009D02*
X18384Y649347D01*
X17990Y648667D02*
X18188Y649009D01*
X17792Y648323D02*
X17990Y648667D01*
X17592Y647975D02*
X17792Y648323D01*
X17390Y647624D02*
X17592Y647975D01*
X17187Y647269D02*
X17390Y647624D01*
X16983Y646911D02*
X17187Y647269D01*
X16777Y646550D02*
X16983Y646911D01*
X16570Y646185D02*
X16777Y646550D01*
X16361Y645817D02*
X16570Y646185D01*
X16151Y645444D02*
X16361Y645817D01*
X15939Y645069D02*
X16151Y645444D01*
X15726Y644689D02*
X15939Y645069D01*
X15511Y644305D02*
X15726Y644689D01*
X15294Y643918D02*
X15511Y644305D01*
X15075Y643527D02*
X15294Y643918D01*
X14855Y643132D02*
X15075Y643527D01*
X14633Y642732D02*
X14855Y643132D01*
X14409Y642329D02*
X14633Y642732D01*
X14184Y641922D02*
X14409Y642329D01*
X13958Y641513D02*
X14184Y641922D01*
X13734Y641105D02*
X13958Y641513D01*
X13512Y640699D02*
X13734Y641105D01*
X13292Y640294D02*
X13512Y640699D01*
X13074Y639891D02*
X13292Y640294D01*
X12857Y639489D02*
X13074Y639891D01*
X12642Y639088D02*
X12857Y639489D01*
X12429Y638689D02*
X12642Y639088D01*
X12218Y638291D02*
X12429Y638689D01*
X12009Y637895D02*
X12218Y638291D01*
X11801Y637500D02*
X12009Y637895D01*
X11596Y637106D02*
X11801Y637500D01*
X11392Y636713D02*
X11596Y637106D01*
X11190Y636322D02*
X11392Y636713D01*
X10989Y635933D02*
X11190Y636322D01*
X10791Y635544D02*
X10989Y635933D01*
X10594Y635157D02*
X10791Y635544D01*
X10400Y634772D02*
X10594Y635157D01*
X10207Y634388D02*
X10400Y634772D01*
X10015Y634005D02*
X10207Y634388D01*
X9826Y633623D02*
X10015Y634005D01*
X9638Y633243D02*
X9826Y633623D01*
X9453Y632865D02*
X9638Y633243D01*
X9269Y632487D02*
X9453Y632865D01*
X9087Y632111D02*
X9269Y632487D01*
X8906Y631737D02*
X9087Y632111D01*
X8728Y631364D02*
X8906Y631737D01*
X8551Y630992D02*
X8728Y631364D01*
X8376Y630621D02*
X8551Y630992D01*
X8203Y630252D02*
X8376Y630621D01*
X8032Y629884D02*
X8203Y630252D01*
X7862Y629518D02*
X8032Y629884D01*
X7695Y629153D02*
X7862Y629518D01*
X7529Y628790D02*
X7695Y629153D01*
X7365Y628427D02*
X7529Y628790D01*
X7203Y628066D02*
X7365Y628427D01*
X7042Y627707D02*
X7203Y628066D01*
X6884Y627349D02*
X7042Y627707D01*
X6727Y626992D02*
X6884Y627349D01*
X6572Y626637D02*
X6727Y626992D01*
X6419Y626283D02*
X6572Y626637D01*
X6267Y625930D02*
X6419Y626283D01*
X6118Y625579D02*
X6267Y625930D01*
X5970Y625229D02*
X6118Y625579D01*
X5824Y624880D02*
X5970Y625229D01*
X5680Y624533D02*
X5824Y624880D01*
X5538Y624187D02*
X5680Y624533D01*
X5398Y623843D02*
X5538Y624187D01*
X5259Y623500D02*
X5398Y623843D01*
X5122Y623158D02*
X5259Y623500D01*
X4987Y622818D02*
X5122Y623158D01*
X4854Y622479D02*
X4987Y622818D01*
X4722Y622141D02*
X4854Y622479D01*
X4593Y621805D02*
X4722Y622141D01*
X4465Y621470D02*
X4593Y621805D01*
X4339Y621137D02*
X4465Y621470D01*
X4215Y620805D02*
X4339Y621137D01*
X4093Y620474D02*
X4215Y620805D01*
X3972Y620145D02*
X4093Y620474D01*
X3853Y619817D02*
X3972Y620145D01*
X3737Y619490D02*
X3853Y619817D01*
X3622Y619165D02*
X3737Y619490D01*
X3508Y618841D02*
X3622Y619165D01*
X3397Y618519D02*
X3508Y618841D01*
X3287Y618198D02*
X3397Y618519D01*
X3179Y617878D02*
X3287Y618198D01*
X3073Y617560D02*
X3179Y617878D01*
X2969Y617243D02*
X3073Y617560D01*
X2867Y616927D02*
X2969Y617243D01*
X2766Y616613D02*
X2867Y616927D01*
X2667Y616300D02*
X2766Y616613D01*
X2570Y615988D02*
X2667Y616300D01*
X2475Y615678D02*
X2570Y615988D01*
X2382Y615369D02*
X2475Y615678D01*
X2290Y615062D02*
X2382Y615369D01*
X2201Y614756D02*
X2290Y615062D01*
X2113Y614451D02*
X2201Y614756D01*
X2027Y614148D02*
X2113Y614451D01*
X1942Y613846D02*
X2027Y614148D01*
X1860Y613546D02*
X1942Y613846D01*
X1779Y613247D02*
X1860Y613546D01*
X1700Y612949D02*
X1779Y613247D01*
X1623Y612652D02*
X1700Y612949D01*
X1548Y612357D02*
X1623Y612652D01*
X1475Y612064D02*
X1548Y612357D01*
X1403Y611771D02*
X1475Y612064D01*
X1333Y611480D02*
X1403Y611771D01*
X1266Y611191D02*
X1333Y611480D01*
X1199Y610903D02*
X1266Y611191D01*
X1135Y610616D02*
X1199Y610903D01*
X1073Y610330D02*
X1135Y610616D01*
X1012Y610046D02*
X1073Y610330D01*
X953Y609764D02*
X1012Y610046D01*
X896Y609482D02*
X953Y609764D01*
X841Y609202D02*
X896Y609482D01*
X787Y608924D02*
X841Y609202D01*
X735Y608646D02*
X787Y608924D01*
X686Y608371D02*
X735Y608646D01*
X638Y608096D02*
X686Y608371D01*
X591Y607823D02*
X638Y608096D01*
X547Y607551D02*
X591Y607823D01*
X504Y607281D02*
X547Y607551D01*
X464Y607012D02*
X504Y607281D01*
X425Y606744D02*
X464Y607012D01*
X387Y606478D02*
X425Y606744D01*
X352Y606213D02*
X387Y606478D01*
X319Y605950D02*
X352Y606213D01*
X287Y605687D02*
X319Y605950D01*
X257Y605427D02*
X287Y605687D01*
X229Y605167D02*
X257Y605427D01*
X203Y604909D02*
X229Y605167D01*
X178Y604653D02*
X203Y604909D01*
X155Y604397D02*
X178Y604653D01*
X135Y604143D02*
X155Y604397D01*
X116Y603891D02*
X135Y604143D01*
X98Y603640D02*
X116Y603891D01*
X83Y603390D02*
X98Y603640D01*
X69Y603142D02*
X83Y603390D01*
X58Y602894D02*
X69Y603142D01*
X48Y602649D02*
X58Y602894D01*
X40Y602404D02*
X48Y602649D01*
X33Y602162D02*
X40Y602404D01*
X29Y601920D02*
X33Y602162D01*
X26Y601680D02*
X29Y601920D01*
X25Y601441D02*
X26Y601680D01*
D13*
X72269Y510890D02*
X72186Y511894D01*
X71939Y512871D01*
X71534Y513794D01*
X70982Y514638D01*
X70300Y515379D01*
X69504Y515998D01*
X68618Y516478D01*
X67665Y516805D01*
X66671Y516971D01*
X65663D01*
X64669Y516805D01*
X63715Y516478D01*
X62829Y515998D01*
X62034Y515379D01*
X61351Y514638D01*
X60800Y513794D01*
X60395Y512871D01*
X60148Y511894D01*
X60064Y510890D01*
X60148Y509885D01*
X60395Y508908D01*
X60800Y507985D01*
X61351Y507142D01*
X62034Y506400D01*
X62829Y505781D01*
X63715Y505301D01*
X64669Y504974D01*
X65663Y504808D01*
X66671D01*
X67665Y504974D01*
X68618Y505301D01*
X69504Y505781D01*
X70300Y506400D01*
X70982Y507142D01*
X71534Y507985D01*
X71939Y508908D01*
X72186Y509885D01*
X72269Y510890D01*
X555706Y773051D02*
X555593Y774052D01*
X555261Y775004D01*
X554724Y775857D01*
X554012Y776569D01*
X553159Y777106D01*
X552207Y777438D01*
X551206Y777551D01*
X550205Y777438D01*
X549254Y777106D01*
X548400Y776569D01*
X547688Y775857D01*
X547152Y775004D01*
X546819Y774052D01*
X546706Y773051D01*
X546819Y772050D01*
X547152Y771099D01*
X547688Y770246D01*
X548400Y769533D01*
X549254Y768997D01*
X550205Y768664D01*
X551206Y768551D01*
X552208Y768664D01*
X553159Y768997D01*
X554012Y769533D01*
X554724Y770246D01*
X555261Y771099D01*
X555593Y772050D01*
X555706Y773051D01*
X330930Y318665D02*
X330847Y319670D01*
X330600Y320647D01*
X330195Y321570D01*
X329644Y322413D01*
X328961Y323155D01*
X328166Y323774D01*
X327279Y324254D01*
X326326Y324581D01*
X325332Y324747D01*
X324324D01*
X323330Y324581D01*
X322377Y324254D01*
X321491Y323774D01*
X320695Y323155D01*
X320012Y322413D01*
X319461Y321570D01*
X319056Y320647D01*
X318809Y319670D01*
X318726Y318665D01*
X318809Y317661D01*
X319056Y316684D01*
X319461Y315761D01*
X320012Y314917D01*
X320695Y314176D01*
X321491Y313557D01*
X322377Y313077D01*
X323330Y312750D01*
X324324Y312584D01*
X325332D01*
X326326Y312750D01*
X327279Y313077D01*
X328166Y313557D01*
X328961Y314176D01*
X329644Y314917D01*
X330195Y315761D01*
X330600Y316684D01*
X330847Y317661D01*
X330930Y318665D01*
X389986D02*
X389902Y319670D01*
X389655Y320647D01*
X389250Y321570D01*
X388699Y322413D01*
X388016Y323155D01*
X387221Y323774D01*
X386335Y324254D01*
X385381Y324581D01*
X384387Y324747D01*
X383379D01*
X382385Y324581D01*
X381432Y324254D01*
X380546Y323774D01*
X379750Y323155D01*
X379068Y322413D01*
X378516Y321570D01*
X378112Y320647D01*
X377864Y319670D01*
X377781Y318665D01*
X377864Y317661D01*
X378112Y316684D01*
X378516Y315761D01*
X379068Y314917D01*
X379750Y314176D01*
X380546Y313557D01*
X381432Y313077D01*
X382385Y312750D01*
X383379Y312584D01*
X384387D01*
X385381Y312750D01*
X386335Y313077D01*
X387221Y313557D01*
X388016Y314176D01*
X388699Y314917D01*
X389250Y315761D01*
X389655Y316684D01*
X389902Y317661D01*
X389986Y318665D01*
X91560Y661283D02*
X91477Y662288D01*
X91230Y663265D01*
X90825Y664188D01*
X90274Y665032D01*
X89591Y665773D01*
X88796Y666392D01*
X87909Y666872D01*
X86956Y667199D01*
X85962Y667365D01*
X84954D01*
X83960Y667199D01*
X83007Y666872D01*
X82120Y666392D01*
X81325Y665773D01*
X80642Y665032D01*
X80091Y664188D01*
X79686Y663265D01*
X79439Y662288D01*
X79356Y661283D01*
X79439Y660279D01*
X79686Y659302D01*
X80091Y658379D01*
X80642Y657535D01*
X81325Y656794D01*
X82120Y656175D01*
X83007Y655695D01*
X83960Y655368D01*
X84954Y655202D01*
X85962D01*
X86956Y655368D01*
X87909Y655695D01*
X88796Y656175D01*
X89591Y656794D01*
X90274Y657535D01*
X90825Y658379D01*
X91230Y659302D01*
X91477Y660279D01*
X91560Y661283D01*
X217741Y751047D02*
X217658Y752052D01*
X217411Y753029D01*
X217006Y753952D01*
X216455Y754795D01*
X215772Y755537D01*
X214977Y756156D01*
X214090Y756636D01*
X213137Y756963D01*
X212143Y757129D01*
X211135D01*
X210141Y756963D01*
X209188Y756636D01*
X208301Y756156D01*
X207506Y755537D01*
X206824Y754795D01*
X206272Y753952D01*
X205868Y753029D01*
X205620Y752052D01*
X205537Y751047D01*
X205620Y750043D01*
X205868Y749066D01*
X206272Y748143D01*
X206824Y747299D01*
X207506Y746558D01*
X208301Y745939D01*
X209188Y745459D01*
X210141Y745132D01*
X211135Y744966D01*
X212143D01*
X213137Y745132D01*
X214090Y745459D01*
X214977Y745939D01*
X215772Y746558D01*
X216455Y747299D01*
X217006Y748143D01*
X217411Y749066D01*
X217658Y750043D01*
X217741Y751047D01*
X503175D02*
X503091Y752052D01*
X502844Y753029D01*
X502439Y753952D01*
X501888Y754795D01*
X501205Y755537D01*
X500410Y756156D01*
X499523Y756636D01*
X498570Y756963D01*
X497576Y757129D01*
X496568D01*
X495574Y756963D01*
X494621Y756636D01*
X493735Y756156D01*
X492939Y755537D01*
X492257Y754795D01*
X491705Y753952D01*
X491300Y753029D01*
X491053Y752052D01*
X490970Y751047D01*
X491053Y750043D01*
X491300Y749066D01*
X491705Y748143D01*
X492257Y747299D01*
X492939Y746558D01*
X493735Y745939D01*
X494621Y745459D01*
X495574Y745132D01*
X496568Y744966D01*
X497576D01*
X498570Y745132D01*
X499523Y745459D01*
X500410Y745939D01*
X501205Y746558D01*
X501888Y747299D01*
X502439Y748143D01*
X502844Y749066D01*
X503091Y750043D01*
X503175Y751047D01*
X629356Y661283D02*
X629273Y662288D01*
X629025Y663265D01*
X628620Y664188D01*
X628069Y665032D01*
X627386Y665773D01*
X626591Y666392D01*
X625705Y666872D01*
X624751Y667199D01*
X623757Y667365D01*
X622749D01*
X621755Y667199D01*
X620802Y666872D01*
X619916Y666392D01*
X619120Y665773D01*
X618438Y665032D01*
X617886Y664188D01*
X617482Y663265D01*
X617234Y662288D01*
X617151Y661283D01*
X617234Y660279D01*
X617482Y659302D01*
X617886Y658379D01*
X618438Y657535D01*
X619120Y656794D01*
X619916Y656175D01*
X620802Y655695D01*
X621755Y655368D01*
X622749Y655202D01*
X623757D01*
X624751Y655368D01*
X625705Y655695D01*
X626591Y656175D01*
X627386Y656794D01*
X628069Y657535D01*
X628620Y658379D01*
X629025Y659302D01*
X629273Y660279D01*
X629356Y661283D01*
X555706Y715051D02*
X555593Y716052D01*
X555261Y717004D01*
X554724Y717857D01*
X554012Y718569D01*
X553159Y719106D01*
X552207Y719438D01*
X551206Y719551D01*
X550205Y719438D01*
X549254Y719106D01*
X548400Y718569D01*
X547688Y717857D01*
X547152Y717004D01*
X546819Y716052D01*
X546706Y715051D01*
X546819Y714050D01*
X547152Y713099D01*
X547688Y712246D01*
X548400Y711533D01*
X549254Y710997D01*
X550205Y710664D01*
X551206Y710551D01*
X552208Y710664D01*
X553159Y710997D01*
X554012Y711533D01*
X554724Y712246D01*
X555261Y713099D01*
X555593Y714050D01*
X555706Y715051D01*
X162005Y773051D02*
X161892Y774052D01*
X161560Y775004D01*
X161024Y775857D01*
X160311Y776569D01*
X159458Y777106D01*
X158507Y777438D01*
X157505Y777551D01*
X156504Y777438D01*
X155553Y777106D01*
X154700Y776569D01*
X153987Y775857D01*
X153451Y775004D01*
X153118Y774052D01*
X153005Y773051D01*
X153118Y772050D01*
X153451Y771099D01*
X153987Y770246D01*
X154700Y769533D01*
X155553Y768997D01*
X156504Y768664D01*
X157505Y768551D01*
X158507Y768664D01*
X159458Y768997D01*
X160311Y769533D01*
X161024Y770246D01*
X161560Y771099D01*
X161892Y772050D01*
X162005Y773051D01*
Y715051D02*
X161892Y716052D01*
X161560Y717004D01*
X161024Y717857D01*
X160311Y718569D01*
X159458Y719105D01*
X158507Y719438D01*
X157505Y719551D01*
X156504Y719438D01*
X155553Y719105D01*
X154700Y718569D01*
X153987Y717857D01*
X153451Y717004D01*
X153118Y716052D01*
X153005Y715051D01*
X153118Y714050D01*
X153451Y713099D01*
X153987Y712246D01*
X154700Y711533D01*
X155553Y710997D01*
X156504Y710664D01*
X157505Y710551D01*
X158507Y710664D01*
X159458Y710997D01*
X160311Y711533D01*
X161024Y712246D01*
X161560Y713099D01*
X161892Y714050D01*
X162005Y715051D01*
X648647Y510890D02*
X648564Y511894D01*
X648316Y512871D01*
X647912Y513794D01*
X647360Y514638D01*
X646678Y515379D01*
X645882Y515998D01*
X644996Y516478D01*
X644043Y516805D01*
X643049Y516971D01*
X642041D01*
X641047Y516805D01*
X640093Y516478D01*
X639207Y515998D01*
X638412Y515379D01*
X637729Y514638D01*
X637178Y513794D01*
X636773Y512871D01*
X636526Y511894D01*
X636442Y510890D01*
X636526Y509885D01*
X636773Y508908D01*
X637178Y507985D01*
X637729Y507142D01*
X638412Y506400D01*
X639207Y505781D01*
X640093Y505301D01*
X641047Y504974D01*
X642041Y504808D01*
X643049D01*
X644043Y504974D01*
X644996Y505301D01*
X645882Y505781D01*
X646678Y506400D01*
X647360Y507142D01*
X647912Y507985D01*
X648316Y508908D01*
X648564Y509885D01*
X648647Y510890D01*
X138509Y259610D02*
X138428Y260613D01*
X138188Y261589D01*
X137793Y262515D01*
X137256Y263365D01*
X136589Y264118D01*
X135810Y264754D01*
X134939Y265257D01*
X133998Y265614D01*
X133013Y265815D01*
X132008Y265855D01*
X131009Y265734D01*
X130043Y265454D01*
X129134Y265023D01*
X128306Y264452D01*
X127581Y263755D01*
X126977Y262951D01*
X126509Y262060D01*
X126191Y261106D01*
X126030Y260113D01*
Y259107D01*
X126191Y258115D01*
X126509Y257160D01*
X126977Y256270D01*
X127581Y255466D01*
X128306Y254769D01*
X129134Y254198D01*
X130043Y253766D01*
X131009Y253486D01*
X132008Y253365D01*
X133013Y253406D01*
X133998Y253607D01*
X134939Y253964D01*
X135810Y254467D01*
X136589Y255103D01*
X137256Y255856D01*
X137793Y256706D01*
X138188Y257631D01*
X138428Y258608D01*
X138509Y259610D01*
X238509Y382610D02*
X238428Y383613D01*
X238188Y384589D01*
X237793Y385515D01*
X237256Y386365D01*
X236589Y387118D01*
X235810Y387754D01*
X234939Y388257D01*
X233998Y388614D01*
X233013Y388815D01*
X232008Y388855D01*
X231009Y388734D01*
X230043Y388454D01*
X229134Y388023D01*
X228307Y387452D01*
X227581Y386755D01*
X226977Y385951D01*
X226509Y385060D01*
X226191Y384106D01*
X226029Y383113D01*
Y382107D01*
X226191Y381115D01*
X226509Y380160D01*
X226977Y379270D01*
X227581Y378466D01*
X228307Y377769D01*
X229134Y377198D01*
X230043Y376766D01*
X231009Y376486D01*
X232008Y376365D01*
X233013Y376406D01*
X233998Y376607D01*
X234939Y376964D01*
X235810Y377467D01*
X236589Y378103D01*
X237256Y378856D01*
X237793Y379706D01*
X238188Y380631D01*
X238428Y381608D01*
X238509Y382610D01*
X188509D02*
X188428Y383613D01*
X188188Y384589D01*
X187793Y385515D01*
X187256Y386365D01*
X186589Y387118D01*
X185810Y387754D01*
X184939Y388257D01*
X183998Y388614D01*
X183013Y388815D01*
X182008Y388855D01*
X181009Y388734D01*
X180043Y388454D01*
X179134Y388023D01*
X178306Y387452D01*
X177581Y386755D01*
X176977Y385951D01*
X176509Y385060D01*
X176191Y384106D01*
X176030Y383113D01*
Y382107D01*
X176191Y381115D01*
X176509Y380160D01*
X176977Y379270D01*
X177581Y378466D01*
X178306Y377769D01*
X179134Y377198D01*
X180043Y376766D01*
X181009Y376486D01*
X182008Y376365D01*
X183013Y376406D01*
X183998Y376607D01*
X184939Y376964D01*
X185810Y377467D01*
X186589Y378103D01*
X187256Y378856D01*
X187793Y379706D01*
X188188Y380631D01*
X188428Y381608D01*
X188509Y382610D01*
X138509D02*
X138428Y383613D01*
X138188Y384589D01*
X137793Y385515D01*
X137256Y386365D01*
X136589Y387118D01*
X135810Y387754D01*
X134939Y388257D01*
X133998Y388614D01*
X133013Y388815D01*
X132008Y388855D01*
X131009Y388734D01*
X130043Y388454D01*
X129134Y388023D01*
X128306Y387452D01*
X127581Y386755D01*
X126977Y385951D01*
X126509Y385060D01*
X126191Y384106D01*
X126030Y383113D01*
Y382107D01*
X126191Y381115D01*
X126509Y380160D01*
X126977Y379270D01*
X127581Y378466D01*
X128306Y377769D01*
X129134Y377198D01*
X130043Y376766D01*
X131009Y376486D01*
X132008Y376365D01*
X133013Y376406D01*
X133998Y376607D01*
X134939Y376964D01*
X135810Y377467D01*
X136589Y378103D01*
X137256Y378856D01*
X137793Y379706D01*
X138188Y380631D01*
X138428Y381608D01*
X138509Y382610D01*
X188509Y259610D02*
X188428Y260613D01*
X188188Y261589D01*
X187793Y262515D01*
X187256Y263365D01*
X186589Y264118D01*
X185810Y264754D01*
X184939Y265257D01*
X183998Y265614D01*
X183013Y265815D01*
X182008Y265855D01*
X181009Y265734D01*
X180043Y265454D01*
X179134Y265023D01*
X178306Y264452D01*
X177581Y263755D01*
X176977Y262951D01*
X176509Y262060D01*
X176191Y261106D01*
X176030Y260113D01*
Y259107D01*
X176191Y258115D01*
X176509Y257160D01*
X176977Y256270D01*
X177581Y255466D01*
X178306Y254769D01*
X179134Y254198D01*
X180043Y253766D01*
X181009Y253486D01*
X182008Y253365D01*
X183013Y253406D01*
X183998Y253607D01*
X184939Y253964D01*
X185810Y254467D01*
X186589Y255103D01*
X187256Y255856D01*
X187793Y256706D01*
X188188Y257631D01*
X188428Y258608D01*
X188509Y259610D01*
X238509D02*
X238428Y260613D01*
X238188Y261589D01*
X237793Y262515D01*
X237256Y263365D01*
X236589Y264118D01*
X235810Y264754D01*
X234939Y265257D01*
X233998Y265614D01*
X233013Y265815D01*
X232008Y265855D01*
X231009Y265734D01*
X230043Y265454D01*
X229134Y265023D01*
X228307Y264452D01*
X227581Y263755D01*
X226977Y262951D01*
X226509Y262060D01*
X226191Y261106D01*
X226029Y260113D01*
Y259107D01*
X226191Y258115D01*
X226509Y257160D01*
X226977Y256270D01*
X227581Y255466D01*
X228307Y254769D01*
X229134Y254198D01*
X230043Y253766D01*
X231009Y253486D01*
X232008Y253365D01*
X233013Y253406D01*
X233998Y253607D01*
X234939Y253964D01*
X235810Y254467D01*
X236589Y255103D01*
X237256Y255856D01*
X237793Y256706D01*
X238188Y257631D01*
X238428Y258608D01*
X238509Y259610D01*
X482702Y382610D02*
X482621Y383613D01*
X482380Y384589D01*
X481986Y385515D01*
X481449Y386365D01*
X480782Y387118D01*
X480003Y387754D01*
X479132Y388257D01*
X478191Y388614D01*
X477206Y388815D01*
X476200Y388855D01*
X475202Y388734D01*
X474236Y388454D01*
X473327Y388023D01*
X472499Y387452D01*
X471774Y386755D01*
X471170Y385951D01*
X470702Y385060D01*
X470384Y384106D01*
X470222Y383113D01*
Y382107D01*
X470384Y381115D01*
X470702Y380160D01*
X471170Y379270D01*
X471774Y378466D01*
X472499Y377769D01*
X473327Y377198D01*
X474236Y376766D01*
X475202Y376486D01*
X476200Y376365D01*
X477206Y376406D01*
X478191Y376607D01*
X479132Y376964D01*
X480003Y377467D01*
X480782Y378103D01*
X481449Y378856D01*
X481986Y379706D01*
X482380Y380631D01*
X482621Y381608D01*
X482702Y382610D01*
X532702D02*
X532621Y383613D01*
X532380Y384589D01*
X531986Y385515D01*
X531449Y386365D01*
X530782Y387118D01*
X530003Y387754D01*
X529132Y388257D01*
X528191Y388614D01*
X527206Y388815D01*
X526200Y388855D01*
X525202Y388734D01*
X524236Y388454D01*
X523327Y388023D01*
X522499Y387452D01*
X521774Y386755D01*
X521170Y385951D01*
X520702Y385060D01*
X520384Y384106D01*
X520222Y383113D01*
Y382107D01*
X520384Y381115D01*
X520702Y380160D01*
X521170Y379270D01*
X521774Y378466D01*
X522499Y377769D01*
X523327Y377198D01*
X524236Y376766D01*
X525202Y376486D01*
X526200Y376365D01*
X527206Y376406D01*
X528191Y376607D01*
X529132Y376964D01*
X530003Y377467D01*
X530782Y378103D01*
X531449Y378856D01*
X531986Y379706D01*
X532380Y380631D01*
X532621Y381608D01*
X532702Y382610D01*
X262033Y627032D02*
X261950Y628036D01*
X261702Y629013D01*
X261297Y629936D01*
X260746Y630780D01*
X260064Y631521D01*
X259268Y632140D01*
X258382Y632620D01*
X257429Y632947D01*
X256434Y633113D01*
X255427D01*
X254433Y632947D01*
X253479Y632620D01*
X252593Y632140D01*
X251798Y631521D01*
X251115Y630780D01*
X250564Y629936D01*
X250159Y629013D01*
X249911Y628036D01*
X249828Y627032D01*
X249911Y626027D01*
X250159Y625050D01*
X250564Y624127D01*
X251115Y623283D01*
X251798Y622542D01*
X252593Y621923D01*
X253479Y621443D01*
X254433Y621116D01*
X255427Y620950D01*
X256434D01*
X257429Y621116D01*
X258382Y621443D01*
X259268Y621923D01*
X260064Y622542D01*
X260746Y623283D01*
X261297Y624127D01*
X261702Y625050D01*
X261950Y626027D01*
X262033Y627032D01*
Y422307D02*
X261950Y423312D01*
X261702Y424289D01*
X261297Y425211D01*
X260746Y426055D01*
X260064Y426797D01*
X259268Y427416D01*
X258382Y427895D01*
X257429Y428223D01*
X256434Y428389D01*
X255427D01*
X254433Y428223D01*
X253479Y427895D01*
X252593Y427416D01*
X251798Y426797D01*
X251115Y426055D01*
X250564Y425211D01*
X250159Y424289D01*
X249911Y423312D01*
X249828Y422307D01*
X249911Y421303D01*
X250159Y420326D01*
X250564Y419403D01*
X251115Y418559D01*
X251798Y417817D01*
X252593Y417198D01*
X253479Y416719D01*
X254433Y416392D01*
X255427Y416226D01*
X256434D01*
X257429Y416392D01*
X258382Y416719D01*
X259268Y417198D01*
X260064Y417817D01*
X260746Y418559D01*
X261297Y419403D01*
X261702Y420326D01*
X261950Y421303D01*
X262033Y422307D01*
X675419Y164433D02*
X675336Y165437D01*
X675088Y166414D01*
X674683Y167338D01*
X674132Y168181D01*
X673449Y168923D01*
X672654Y169542D01*
X671768Y170021D01*
X670814Y170349D01*
X669820Y170515D01*
X668812D01*
X667818Y170349D01*
X666865Y170021D01*
X665979Y169542D01*
X665183Y168923D01*
X664501Y168181D01*
X663949Y167338D01*
X663545Y166414D01*
X663297Y165437D01*
X663214Y164433D01*
X663297Y163429D01*
X663545Y162452D01*
X663949Y161529D01*
X664501Y160685D01*
X665183Y159943D01*
X665979Y159324D01*
X666865Y158845D01*
X667818Y158517D01*
X668812Y158352D01*
X669820D01*
X670814Y158517D01*
X671768Y158845D01*
X672654Y159324D01*
X673449Y159943D01*
X674132Y160685D01*
X674683Y161529D01*
X675088Y162452D01*
X675336Y163429D01*
X675419Y164433D01*
X45497D02*
X45414Y165437D01*
X45167Y166414D01*
X44762Y167338D01*
X44211Y168181D01*
X43528Y168923D01*
X42733Y169542D01*
X41846Y170021D01*
X40893Y170349D01*
X39899Y170515D01*
X38891D01*
X37897Y170349D01*
X36944Y170021D01*
X36057Y169542D01*
X35262Y168923D01*
X34580Y168181D01*
X34028Y167338D01*
X33623Y166414D01*
X33376Y165437D01*
X33293Y164433D01*
X33376Y163429D01*
X33623Y162452D01*
X34028Y161529D01*
X34580Y160685D01*
X35262Y159943D01*
X36057Y159324D01*
X36944Y158845D01*
X37897Y158517D01*
X38891Y158352D01*
X39899D01*
X40893Y158517D01*
X41846Y158845D01*
X42733Y159324D01*
X43528Y159943D01*
X44211Y160685D01*
X44762Y161529D01*
X45167Y162452D01*
X45414Y163429D01*
X45497Y164433D01*
X419906Y755501D02*
X419823Y756505D01*
X419576Y757482D01*
X419171Y758405D01*
X418619Y759249D01*
X417937Y759991D01*
X417141Y760610D01*
X416255Y761089D01*
X415302Y761416D01*
X414308Y761582D01*
X413300D01*
X412306Y761416D01*
X411353Y761089D01*
X410466Y760610D01*
X409671Y759991D01*
X408988Y759249D01*
X408437Y758405D01*
X408032Y757482D01*
X407785Y756505D01*
X407701Y755501D01*
X407785Y754496D01*
X408032Y753519D01*
X408437Y752597D01*
X408988Y751753D01*
X409671Y751011D01*
X410466Y750392D01*
X411353Y749913D01*
X412306Y749585D01*
X413300Y749419D01*
X414308D01*
X415302Y749585D01*
X416255Y749913D01*
X417141Y750392D01*
X417937Y751011D01*
X418619Y751753D01*
X419171Y752597D01*
X419576Y753519D01*
X419823Y754496D01*
X419906Y755501D01*
X300990Y819280D02*
X300906Y820284D01*
X300659Y821261D01*
X300254Y822184D01*
X299703Y823028D01*
X299020Y823770D01*
X298225Y824389D01*
X297339Y824868D01*
X296385Y825196D01*
X295391Y825361D01*
X294383D01*
X293389Y825196D01*
X292436Y824868D01*
X291550Y824389D01*
X290754Y823770D01*
X290072Y823028D01*
X289521Y822184D01*
X289116Y821261D01*
X288868Y820284D01*
X288785Y819280D01*
X288868Y818276D01*
X289116Y817299D01*
X289521Y816376D01*
X290072Y815532D01*
X290754Y814790D01*
X291550Y814171D01*
X292436Y813692D01*
X293389Y813364D01*
X294383Y813198D01*
X295391D01*
X296385Y813364D01*
X297339Y813692D01*
X298225Y814171D01*
X299020Y814790D01*
X299703Y815532D01*
X300254Y816376D01*
X300659Y817299D01*
X300906Y818276D01*
X300990Y819280D01*
X582702Y382610D02*
X582621Y383613D01*
X582380Y384589D01*
X581986Y385515D01*
X581449Y386365D01*
X580782Y387118D01*
X580003Y387754D01*
X579132Y388257D01*
X578191Y388614D01*
X577206Y388815D01*
X576200Y388855D01*
X575202Y388734D01*
X574236Y388454D01*
X573327Y388023D01*
X572499Y387452D01*
X571774Y386755D01*
X571170Y385951D01*
X570702Y385060D01*
X570384Y384106D01*
X570222Y383113D01*
Y382107D01*
X570384Y381115D01*
X570702Y380160D01*
X571170Y379270D01*
X571774Y378466D01*
X572499Y377769D01*
X573327Y377198D01*
X574236Y376766D01*
X575202Y376486D01*
X576200Y376365D01*
X577206Y376406D01*
X578191Y376607D01*
X579132Y376964D01*
X580003Y377467D01*
X580782Y378103D01*
X581449Y378856D01*
X581986Y379706D01*
X582380Y380631D01*
X582621Y381608D01*
X582702Y382610D01*
Y259610D02*
X582621Y260613D01*
X582380Y261589D01*
X581986Y262515D01*
X581449Y263365D01*
X580782Y264118D01*
X580003Y264754D01*
X579132Y265257D01*
X578191Y265614D01*
X577206Y265815D01*
X576200Y265855D01*
X575202Y265734D01*
X574236Y265454D01*
X573327Y265023D01*
X572499Y264452D01*
X571774Y263755D01*
X571170Y262951D01*
X570702Y262060D01*
X570384Y261106D01*
X570222Y260113D01*
Y259107D01*
X570384Y258115D01*
X570702Y257160D01*
X571170Y256270D01*
X571774Y255466D01*
X572499Y254769D01*
X573327Y254198D01*
X574236Y253766D01*
X575202Y253486D01*
X576200Y253365D01*
X577206Y253406D01*
X578191Y253607D01*
X579132Y253964D01*
X580003Y254467D01*
X580782Y255103D01*
X581449Y255856D01*
X581986Y256706D01*
X582380Y257631D01*
X582621Y258608D01*
X582702Y259610D01*
X532702D02*
X532621Y260613D01*
X532380Y261589D01*
X531986Y262515D01*
X531449Y263365D01*
X530782Y264118D01*
X530003Y264754D01*
X529132Y265257D01*
X528191Y265614D01*
X527206Y265815D01*
X526200Y265855D01*
X525202Y265734D01*
X524236Y265454D01*
X523327Y265023D01*
X522499Y264452D01*
X521774Y263755D01*
X521170Y262951D01*
X520702Y262060D01*
X520384Y261106D01*
X520222Y260113D01*
Y259107D01*
X520384Y258115D01*
X520702Y257160D01*
X521170Y256270D01*
X521774Y255466D01*
X522499Y254769D01*
X523327Y254198D01*
X524236Y253766D01*
X525202Y253486D01*
X526200Y253365D01*
X527206Y253406D01*
X528191Y253607D01*
X529132Y253964D01*
X530003Y254467D01*
X530782Y255103D01*
X531449Y255856D01*
X531986Y256706D01*
X532380Y257631D01*
X532621Y258608D01*
X532702Y259610D01*
X482702D02*
X482621Y260613D01*
X482380Y261589D01*
X481986Y262515D01*
X481449Y263365D01*
X480782Y264118D01*
X480003Y264754D01*
X479132Y265257D01*
X478191Y265614D01*
X477206Y265815D01*
X476200Y265855D01*
X475202Y265734D01*
X474236Y265454D01*
X473327Y265023D01*
X472499Y264452D01*
X471774Y263755D01*
X471170Y262951D01*
X470702Y262060D01*
X470384Y261106D01*
X470222Y260113D01*
Y259107D01*
X470384Y258115D01*
X470702Y257160D01*
X471170Y256270D01*
X471774Y255466D01*
X472499Y254769D01*
X473327Y254198D01*
X474236Y253766D01*
X475202Y253486D01*
X476200Y253365D01*
X477206Y253406D01*
X478191Y253607D01*
X479132Y253964D01*
X480003Y254467D01*
X480782Y255103D01*
X481449Y255856D01*
X481986Y256706D01*
X482380Y257631D01*
X482621Y258608D01*
X482702Y259610D01*
X49434Y627032D02*
X49351Y628036D01*
X49104Y629013D01*
X48699Y629936D01*
X48148Y630780D01*
X47465Y631521D01*
X46670Y632140D01*
X45783Y632620D01*
X44830Y632947D01*
X43836Y633113D01*
X42828D01*
X41834Y632947D01*
X40881Y632620D01*
X39994Y632140D01*
X39199Y631521D01*
X38517Y630780D01*
X37965Y629936D01*
X37560Y629013D01*
X37313Y628036D01*
X37230Y627032D01*
X37313Y626027D01*
X37560Y625050D01*
X37965Y624127D01*
X38517Y623283D01*
X39199Y622542D01*
X39994Y621923D01*
X40881Y621443D01*
X41834Y621116D01*
X42828Y620950D01*
X43836D01*
X44830Y621116D01*
X45783Y621443D01*
X46670Y621923D01*
X47465Y622542D01*
X48148Y623283D01*
X48699Y624127D01*
X49104Y625050D01*
X49351Y626027D01*
X49434Y627032D01*
X25Y534615D02*
X31Y533629D01*
X50Y532644D01*
X81Y531659D01*
X124Y530675D01*
X179Y529691D01*
X247Y528708D01*
X327Y527726D01*
X419Y526745D01*
X524Y525765D01*
X641Y524787D01*
X770Y523810D01*
X911Y522835D01*
X1065Y521862D01*
X1230Y520890D01*
X1408Y519921D01*
X1598Y518954D01*
X1800Y517990D01*
X2014Y517028D01*
X2240Y516069D01*
X2478Y515113D01*
X2728Y514160D01*
X2990Y513210D01*
X3264Y512263D01*
X3550Y511320D01*
X8623Y154889D02*
X8330Y153927D01*
X8087Y152950D01*
X7894Y151963D01*
X7752Y150967D01*
X7661Y149964D01*
X7621Y148959D01*
X7633Y147953D01*
X7696Y146949D01*
X7811Y145949D01*
X7976Y144957D01*
X8192Y143974D01*
X8457Y143003D01*
X8772Y142048D01*
X9136Y141109D01*
X9546Y140191D01*
X10004Y139295D01*
X10506Y138423D01*
X11052Y137578D01*
X11641Y136762D01*
X12271Y135977D01*
X12940Y135226D01*
X13646Y134509D01*
X14389Y133830D01*
X15165Y133189D01*
X15972Y132589D01*
X16809Y132031D01*
X17674Y131517D01*
X18564Y131047D01*
X19477Y130623D01*
X20410Y130247D01*
X21361Y129919D01*
X22328Y129639D01*
X23307Y129410D01*
X24297Y129231D01*
X25295Y129103D01*
X26299Y129026D01*
X27305Y129000D01*
X681407D02*
X682413Y129026D01*
X683416Y129103D01*
X684414Y129231D01*
X685404Y129410D01*
X686384Y129639D01*
X687350Y129919D01*
X688302Y130247D01*
X689235Y130623D01*
X690147Y131047D01*
X691037Y131517D01*
X691902Y132031D01*
X692739Y132589D01*
X693547Y133189D01*
X694323Y133830D01*
X695065Y134509D01*
X695771Y135226D01*
X696440Y135977D01*
X697070Y136762D01*
X697659Y137578D01*
X698205Y138423D01*
X698708Y139295D01*
X699165Y140191D01*
X699576Y141109D01*
X699939Y142048D01*
X700254Y143003D01*
X700520Y143974D01*
X700736Y144957D01*
X700901Y145949D01*
X701015Y146949D01*
X701078Y147953D01*
X701090Y148959D01*
X701050Y149964D01*
X700959Y150967D01*
X700817Y151963D01*
X700624Y152950D01*
X700381Y153927D01*
X700089Y154889D01*
X705162Y511320D02*
X705447Y512263D01*
X705721Y513210D01*
X705983Y514160D01*
X706233Y515113D01*
X706471Y516069D01*
X706697Y517028D01*
X706911Y517990D01*
X707113Y518954D01*
X707303Y519921D01*
X707481Y520890D01*
X707647Y521862D01*
X707800Y522835D01*
X707942Y523810D01*
X708071Y524787D01*
X708188Y525766D01*
X708292Y526745D01*
X708385Y527726D01*
X708465Y528708D01*
X708532Y529691D01*
X708588Y530675D01*
X708631Y531660D01*
X708662Y532645D01*
X708680Y533630D01*
X708686Y534615D01*
X580431Y774889D02*
X579672Y775543D01*
X578912Y776196D01*
X578151Y776846D01*
X577389Y777496D01*
X576625Y778143D01*
X575860Y778789D01*
X575093Y779434D01*
X574325Y780076D01*
X573556Y780718D01*
X572786Y781357D01*
X62797Y709406D02*
X62143Y708647D01*
X61491Y707887D01*
X60840Y707126D01*
X60191Y706364D01*
X59543Y705600D01*
X58897Y704835D01*
X58253Y704068D01*
X57610Y703300D01*
X56969Y702531D01*
X56329Y701760D01*
D28*
X443400Y693600D02*
X474900Y725100D01*
Y765100D01*
X453500Y786500D02*
X474900Y765100D01*
X453500Y786500D02*
Y812874D01*
X474200Y660000D02*
X538000D01*
X549000Y649000D01*
X510700Y687800D02*
Y781300D01*
Y687800D02*
X538500Y660000D01*
X286100Y674300D02*
X297000Y663400D01*
X459200Y675000D02*
X474200Y660000D01*
X474300Y660100D01*
X441900Y627700D02*
X474200Y660000D01*
X297000Y642900D02*
Y663400D01*
Y642900D02*
X312200Y627700D01*
X441900D01*
X268000Y701600D02*
X286000Y683600D01*
X268000Y701600D02*
Y722000D01*
X308400Y674600D02*
X320300Y686500D01*
X278000Y722000D02*
Y722700D01*
Y706055D02*
Y722000D01*
Y706055D02*
X308681Y675374D01*
X320300Y686500D02*
X376800D01*
X434500Y675000D02*
X459200D01*
X538000Y660000D02*
X538500D01*
X580400Y645100D02*
Y649800D01*
X549000Y649000D02*
X580252D01*
X593000Y591400D02*
X614000Y612400D01*
X580400Y645100D02*
X613500Y612000D01*
X633500D02*
X633600Y612100D01*
X632000Y610500D02*
X633500Y612000D01*
X626100Y478400D02*
Y479000D01*
Y200000D02*
Y478400D01*
X632000Y484300D02*
Y610500D01*
X626100Y478400D02*
X632000Y484300D01*
X593000Y521000D02*
Y591400D01*
X593200Y501000D02*
X604100D01*
X626100Y479000D01*
Y200000D02*
X640813Y185287D01*
Y151498D02*
Y185287D01*
X321371Y391771D02*
X329500Y383642D01*
X233458Y200500D02*
X290900D01*
X203400Y701163D02*
Y743400D01*
X209800Y683800D02*
X220700D01*
X203400Y701163D02*
X221000Y683563D01*
X203300Y626500D02*
Y677300D01*
X128700Y645200D02*
Y648400D01*
X206100Y312042D02*
X285829Y391771D01*
X206100Y227858D02*
Y311900D01*
X115300Y520800D02*
X123100D01*
X131600Y485600D02*
Y512300D01*
Y485600D02*
X146900Y470300D01*
X255500Y790200D02*
X255800Y789900D01*
X255500Y790200D02*
Y812874D01*
X290800Y211000D02*
X291500D01*
X248300Y739000D02*
Y749600D01*
X193600Y757100D02*
X197300Y760800D01*
X221100Y622100D02*
Y657700D01*
X216100Y232000D02*
Y307900D01*
Y232000D02*
X237600Y210500D01*
X237100Y760800D02*
X248300Y749600D01*
X197300Y760800D02*
X237100D01*
X243500Y734200D02*
X248300Y739000D01*
X224100Y734200D02*
X243500D01*
X218700Y728800D02*
X224100Y734200D01*
X193600Y747500D02*
X199300D01*
X203400Y743400D01*
X221000Y657500D02*
Y673200D01*
X203300Y677300D02*
X209800Y683800D01*
X173100Y596300D02*
X203300Y626500D01*
X216300Y617300D02*
X221100Y622100D01*
X216300Y426700D02*
Y617300D01*
X95500Y612000D02*
X128700Y645200D01*
X115500Y521000D02*
X138300Y543800D01*
X206100Y311900D02*
Y312042D01*
X123100Y520800D02*
X131600Y512300D01*
X319800Y368300D02*
Y375500D01*
X312800Y382500D02*
X319800Y375500D01*
X290700Y382500D02*
X312800D01*
X216100Y307900D02*
X290700Y382500D01*
X412900Y210000D02*
X419500D01*
X319500Y368000D02*
X319800Y368300D01*
X387500Y235400D02*
X412900Y210000D01*
X315900Y235400D02*
X387500D01*
X291500Y211000D02*
X315900Y235400D01*
X237600Y210500D02*
X290900D01*
X329500Y368000D02*
Y383642D01*
X285829Y391771D02*
X321371D01*
X206100Y227858D02*
X233458Y200500D01*
D29*
X357100Y268400D02*
X378750Y246750D01*
X357100Y268400D02*
X378750Y246750D01*
X368300Y173800D02*
Y225000D01*
Y173800D02*
Y225000D01*
Y173800D02*
Y225000D01*
X357100Y268400D02*
X378750Y246750D01*
X345898Y151398D02*
X368300Y173800D01*
X264713Y151398D02*
X345898D01*
X378700Y246700D02*
X378750Y246750D01*
X275700Y268400D02*
X357100D01*
X378200Y246700D02*
X378700D01*
X264713Y257413D02*
X275700Y268400D01*
X264713Y232500D02*
Y257413D01*
D30*
X120900Y576800D02*
X122350Y578250D01*
X175500Y631400D01*
Y665000D01*
X122350Y578250D02*
X175500Y631400D01*
X120900Y576800D02*
X122350Y578250D01*
X65000Y152100D02*
X92300Y179400D01*
Y523600D01*
X59100Y556800D02*
X92300Y523600D01*
X13000Y556800D02*
X59100D01*
X13000Y576800D02*
X120900D01*
D31*
X434000Y786100D02*
Y823600D01*
X433700Y823900D02*
X434000Y823600D01*
X189100Y782700D02*
X254800D01*
X180800Y706400D02*
X186400Y700800D01*
X180800Y706400D02*
Y774400D01*
X175500Y665315D02*
X186400Y676215D01*
Y700800D01*
X274300Y751500D02*
Y763200D01*
X254800Y782700D02*
X274300Y763200D01*
X180800Y774400D02*
X189100Y782700D01*
D32*
X491300Y381300D02*
Y409300D01*
Y381300D02*
Y409300D01*
X453900Y343900D02*
X491300Y381300D01*
X453900Y163798D02*
Y343900D01*
X441600Y151498D02*
X453900Y163798D01*
D33*
X428100Y138000D02*
X441600Y151500D01*
X440600Y233500D02*
Y275100D01*
Y233500D02*
Y275100D01*
X428100Y138000D02*
X441600Y151500D01*
X187300Y138000D02*
X428100D01*
X122350Y578250D02*
X157500Y543100D01*
X122100Y578500D02*
X122350Y578250D01*
X157500Y167800D02*
X187300Y138000D01*
X157500Y167800D02*
Y543100D01*
X435700Y280000D02*
X440600Y275100D01*
X397200Y280000D02*
X435700D01*
D34*
X539500Y538800D02*
Y570000D01*
X522000Y409000D02*
Y500300D01*
X527500Y505800D01*
X560575Y538325D02*
Y568375D01*
X563900Y505800D02*
X570700Y499000D01*
X527500Y505800D02*
X563900D01*
X512000Y409000D02*
Y501500D01*
X549500Y539000D01*
Y570000D01*
X502000Y409000D02*
Y501300D01*
X539500Y538800D01*
D35*
X13000Y596800D02*
D03*
D36*
Y576800D02*
D03*
Y556800D02*
D03*
Y536800D02*
D03*
X175500Y665000D02*
D03*
D37*
Y685000D02*
D03*
D38*
X416555Y675374D02*
D03*
D39*
Y665532D02*
D03*
X308681Y675374D02*
D03*
X416555Y655689D02*
D03*
Y645846D02*
D03*
X308681Y665532D02*
D03*
Y655689D02*
D03*
Y645846D02*
D03*
D40*
X588000Y599000D02*
D03*
X578000D02*
D03*
X568000D02*
D03*
X558000D02*
D03*
X548000D02*
D03*
X538000D02*
D03*
X528000D02*
D03*
X518000D02*
D03*
X508000D02*
D03*
X498000D02*
D03*
X482000D02*
D03*
X472000D02*
D03*
X462000D02*
D03*
X452000D02*
D03*
X442000D02*
D03*
X432000D02*
D03*
X422000D02*
D03*
X412000D02*
D03*
X392000D02*
D03*
X382000D02*
D03*
X372000D02*
D03*
X362000D02*
D03*
X352000D02*
D03*
X342000D02*
D03*
X332000D02*
D03*
X322000D02*
D03*
X282000D02*
D03*
X292000D02*
D03*
X282000Y589000D02*
D03*
X292000D02*
D03*
X282000Y579000D02*
D03*
X292000D02*
D03*
X282000Y569000D02*
D03*
X292000D02*
D03*
X282000Y559000D02*
D03*
X292000D02*
D03*
X282000Y549000D02*
D03*
X292000D02*
D03*
X282000Y539000D02*
D03*
X292000D02*
D03*
X282000Y529000D02*
D03*
X292000D02*
D03*
X282000Y519000D02*
D03*
X292000D02*
D03*
X282000Y509000D02*
D03*
X292000D02*
D03*
X282000Y499000D02*
D03*
X292000D02*
D03*
X282000Y489000D02*
D03*
X292000D02*
D03*
X282000Y479000D02*
D03*
X292000D02*
D03*
X282000Y469000D02*
D03*
X292000D02*
D03*
Y459000D02*
D03*
X282000D02*
D03*
X292000Y449000D02*
D03*
X282000D02*
D03*
X292000Y439000D02*
D03*
X282000D02*
D03*
X292000Y429000D02*
D03*
X282000D02*
D03*
X303000Y409000D02*
D03*
X313000D02*
D03*
X322000D02*
D03*
X332000D02*
D03*
X342000D02*
D03*
X352000D02*
D03*
X362000D02*
D03*
X372000D02*
D03*
X392000D02*
D03*
X402000D02*
D03*
X412000D02*
D03*
X422000D02*
D03*
X432000D02*
D03*
X442000D02*
D03*
X452000D02*
D03*
X462000D02*
D03*
X482000D02*
D03*
X492000D02*
D03*
X502000D02*
D03*
X512000D02*
D03*
X522000D02*
D03*
X532000D02*
D03*
X542000D02*
D03*
D41*
X552000D02*
D03*
D42*
X613500Y612000D02*
D03*
X75500D02*
D03*
X434500Y665000D02*
D03*
X457500Y764500D02*
D03*
X378500Y225000D02*
D03*
X580252Y649000D02*
D03*
X538500Y660000D02*
D03*
X193500Y767500D02*
D03*
X286000Y684000D02*
D03*
X549500Y570000D02*
D03*
X128748Y698000D02*
D03*
D43*
X623500Y612000D02*
D03*
X633500D02*
D03*
X85500D02*
D03*
X95500D02*
D03*
X593000Y511000D02*
D03*
Y501000D02*
D03*
X115500Y511000D02*
D03*
Y521000D02*
D03*
X278000Y722000D02*
D03*
X288000D02*
D03*
X298000D02*
D03*
X308000D02*
D03*
X318000D02*
D03*
X328000D02*
D03*
X338000D02*
D03*
X348000D02*
D03*
X358000D02*
D03*
X368000D02*
D03*
X378000D02*
D03*
X388000D02*
D03*
X398000D02*
D03*
X408000D02*
D03*
X418000D02*
D03*
X428000D02*
D03*
X438000D02*
D03*
X389500Y368000D02*
D03*
X379500D02*
D03*
X369500D02*
D03*
X359500D02*
D03*
X349500D02*
D03*
X339500D02*
D03*
X329500D02*
D03*
X434500Y675000D02*
D03*
Y685000D02*
D03*
X457500Y754500D02*
D03*
X471500Y451000D02*
D03*
X461500D02*
D03*
X328500Y225000D02*
D03*
X338500D02*
D03*
X348500D02*
D03*
X358500D02*
D03*
X368500D02*
D03*
X580252Y699000D02*
D03*
Y689000D02*
D03*
Y679000D02*
D03*
Y669000D02*
D03*
Y659000D02*
D03*
X538500Y690000D02*
D03*
Y680000D02*
D03*
Y670000D02*
D03*
X345421Y508500D02*
D03*
X221000Y683563D02*
D03*
X231000D02*
D03*
X241000D02*
D03*
X251000D02*
D03*
X261000D02*
D03*
X271000D02*
D03*
Y657500D02*
D03*
X261000D02*
D03*
X251000D02*
D03*
X241000D02*
D03*
X231000D02*
D03*
X238500Y714700D02*
D03*
Y744700D02*
D03*
X227500D02*
D03*
Y714700D02*
D03*
X193500Y757500D02*
D03*
Y747500D02*
D03*
Y737500D02*
D03*
Y727500D02*
D03*
Y717500D02*
D03*
X245500Y812874D02*
D03*
X235500D02*
D03*
X225500D02*
D03*
X215500D02*
D03*
X205500D02*
D03*
X286000Y664000D02*
D03*
Y674000D02*
D03*
X570575Y488000D02*
D03*
Y478000D02*
D03*
Y498000D02*
D03*
Y468000D02*
D03*
X560575D02*
D03*
Y488000D02*
D03*
Y478000D02*
D03*
X419500Y190000D02*
D03*
Y200000D02*
D03*
Y210000D02*
D03*
Y220000D02*
D03*
Y230000D02*
D03*
X290900Y190500D02*
D03*
Y200500D02*
D03*
Y210500D02*
D03*
Y220500D02*
D03*
Y230500D02*
D03*
X539500Y570000D02*
D03*
X529500D02*
D03*
X519500D02*
D03*
X509500D02*
D03*
X499500D02*
D03*
X489500D02*
D03*
X479500D02*
D03*
X493500Y812874D02*
D03*
X483500D02*
D03*
X473500D02*
D03*
X463500D02*
D03*
X453500D02*
D03*
X128748Y688000D02*
D03*
Y678000D02*
D03*
Y668000D02*
D03*
Y658000D02*
D03*
Y648000D02*
D03*
D44*
X593000Y521000D02*
D03*
X115500Y501000D02*
D03*
X268000Y722000D02*
D03*
X319500Y368000D02*
D03*
X481500Y451000D02*
D03*
X315500Y508500D02*
D03*
X221000Y657500D02*
D03*
X255500Y812874D02*
D03*
X560575Y498000D02*
D03*
X419500Y180000D02*
D03*
X290900Y180500D02*
D03*
X503500Y812874D02*
D03*
D45*
X275000Y824000D02*
D03*
Y751165D02*
D03*
X433661Y824000D02*
D03*
Y751165D02*
D03*
X441600Y232600D02*
D03*
Y151498D02*
D03*
X640813Y232600D02*
D03*
Y151498D02*
D03*
X65500Y232500D02*
D03*
Y151398D02*
D03*
X264713Y232500D02*
D03*
Y151398D02*
D03*
D46*
X385000Y444600D02*
D03*
X385400Y454200D02*
D03*
X385200Y449400D02*
D03*
X466200Y481300D02*
D03*
X466100Y476500D02*
D03*
Y464500D02*
D03*
X385000Y437700D02*
D03*
X466100Y470500D02*
D03*
X332300Y438600D02*
D03*
X328500Y456400D02*
D03*
X322700Y453700D02*
D03*
X334800Y458900D02*
D03*
X322200Y435100D02*
D03*
X318100Y569700D02*
D03*
X334700Y565900D02*
D03*
X336700Y561400D02*
D03*
X402200Y571300D02*
D03*
X332500Y569900D02*
D03*
X320300Y561400D02*
D03*
X320200Y565800D02*
D03*
X328750Y434800D02*
D03*
X235500Y825100D02*
D03*
X397400Y571400D02*
D03*
X283500Y734400D02*
D03*
X291300Y707200D02*
D03*
X139400Y646500D02*
D03*
Y663500D02*
D03*
X429100Y562700D02*
D03*
X389100D02*
D03*
X560575Y568375D02*
D03*
Y538325D02*
D03*
X332900Y557100D02*
D03*
X320100D02*
D03*
X302700Y729200D02*
D03*
X296200Y700800D02*
D03*
X409300Y619500D02*
D03*
X397900D02*
D03*
X332000Y574600D02*
D03*
X320200D02*
D03*
X242300Y559100D02*
D03*
X461300Y567900D02*
D03*
Y536600D02*
D03*
X467300D02*
D03*
Y567900D02*
D03*
D47*
X443300Y693400D02*
D03*
X510700Y781300D02*
D03*
X474300Y660100D02*
D03*
X376800Y686500D02*
D03*
X626100Y478400D02*
D03*
X255700Y790200D02*
D03*
X248200Y749400D02*
D03*
X218700Y728800D02*
D03*
X221000Y673200D02*
D03*
X173100Y596300D02*
D03*
X216300Y426700D02*
D03*
X216500Y307100D02*
D03*
X206100Y311900D02*
D03*
X440800Y274500D02*
D03*
X397200Y280000D02*
D03*
X434000Y786100D02*
D03*
D48*
X138300Y543800D02*
D03*
X146900Y470300D02*
D03*
X378200Y246700D02*
D03*
X122100Y578500D02*
D03*
X44300Y598100D02*
D03*
D49*
X578000Y589736D02*
Y599000D01*
X571397Y583132D02*
X578000Y589736D01*
X588000Y596200D02*
Y599000D01*
X572432Y580632D02*
X588000Y596200D01*
X458532Y583132D02*
X571397D01*
X457800Y582400D02*
X458532Y583132D01*
X457800Y582400D02*
X457800D01*
X459568Y580632D02*
X572432D01*
X432635Y553700D02*
X459568Y580632D01*
X367300Y553700D02*
X432635D01*
X431600Y556200D02*
X457800Y582400D01*
X374800Y556200D02*
X431600D01*
X322000Y599000D02*
X367300Y553700D01*
X332000Y599000D02*
X374800Y556200D01*
X226000Y713300D02*
X227500Y714800D01*
X226000Y485000D02*
Y713300D01*
Y485000D02*
X282000Y429000D01*
M02*
