%FSTAX23Y23*%
%MOIN*%
%SFA1B1*%

%IPPOS*%
%ADD11C,0.010000*%
%ADD33C,0.001970*%
%LNbuttonpanel-1*%
%LPD*%
G36*
X00408Y00817D02*
X00609D01*
Y00612*
X00408*
Y00817*
G37*
G36*
X00907D02*
X01108D01*
Y00612*
X00907*
Y00817*
G37*
G36*
X01406D02*
X01607D01*
Y00612*
X01406*
Y00817*
G37*
G54D11*
X0Y0D02*
Y0256D01*
Y0D02*
X0199D01*
Y0256*
X0D02*
X0199D01*
G54D33*
X01088Y0045D02*
Y00539D01*
X00911Y0045D02*
Y00539D01*
X01088*
X00911Y0045D02*
X01088D01*
X01593D02*
Y00539D01*
X01416Y0045D02*
Y00539D01*
X01593*
X01416Y0045D02*
X01593D01*
X00416D02*
X00593D01*
X00416Y00539D02*
X00593D01*
X00416Y0045D02*
Y00539D01*
X00593Y0045D02*
Y00539D01*
X01502Y02081D02*
X01677D01*
X01502Y02168D02*
X01677D01*
X01502Y02081D02*
Y02168D01*
X01677Y02081D02*
Y02168D01*
X01221Y02081D02*
X01395D01*
X01221Y02168D02*
X01395D01*
X01221Y02081D02*
Y02168D01*
X01395Y02081D02*
Y02168D01*
X0094Y02081D02*
X01114D01*
X0094Y02168D02*
X01114D01*
X0094Y02081D02*
Y02168D01*
X01114Y02081D02*
Y02168D01*
X00659Y02081D02*
X00833D01*
X00659Y02168D02*
X00833D01*
X00659Y02081D02*
Y02168D01*
X00833Y02081D02*
Y02168D01*
X00377Y02081D02*
X00552D01*
X00377Y02168D02*
X00552D01*
X00377Y02081D02*
Y02168D01*
X00552Y02081D02*
Y02168D01*
X01478Y02211D02*
Y02392D01*
X01565*
Y02211D02*
Y02392D01*
X01478Y02211D02*
X01565D01*
X0122D02*
Y02392D01*
X01306*
Y02211D02*
Y02392D01*
X0122Y02211D02*
X01306D01*
X00962D02*
Y02392D01*
X01048*
Y02211D02*
Y02392D01*
X00962Y02211D02*
X01048D01*
X00701Y02219D02*
Y024D01*
X00788*
Y02219D02*
Y024D01*
X00701Y02219D02*
X00788D01*
X00445Y02211D02*
Y02392D01*
X00531*
Y02211D02*
Y02392D01*
X00445Y02211D02*
X00531D01*
M02*