%FSTAX23Y23*%
%MOIN*%
%SFA1B1*%

%IPPOS*%
%ADD11C,0.010000*%
%ADD12R,0.044490X0.069690*%
%ADD13R,0.038190X0.068110*%
%ADD14R,0.068110X0.043310*%
%ADD15R,0.039370X0.027560*%
%ADD25C,0.030000*%
%ADD26C,0.024800*%
%ADD27C,0.122050*%
%ADD28R,0.059060X0.059060*%
%ADD29C,0.059060*%
%ADD30R,0.059060X0.059060*%
%ADD31C,0.050000*%
%LNbuttonpanel-1*%
%LPD*%
G54D11*
X0Y0D02*
Y0256D01*
Y0D02*
X0199D01*
Y0256*
X0D02*
X0199D01*
G54D12*
X01056Y00495D03*
X00943D03*
X01561D03*
X01448D03*
X00448D03*
X00561D03*
G54D13*
X01531Y02125D03*
X01648D03*
X0125D03*
X01367D03*
X00969D03*
X01085D03*
X00687D03*
X00804D03*
X00406D03*
X00523D03*
G54D14*
X01522Y02242D03*
Y02361D03*
X01263Y02242D03*
Y02361D03*
X01005Y02242D03*
Y02361D03*
X00745Y0225D03*
Y02369D03*
X00488Y02242D03*
Y02361D03*
G54D15*
X00388Y00787D03*
X00625D03*
X00388Y00642D03*
X00625D03*
X00887Y00787D03*
X01124D03*
X00887Y00642D03*
X01124D03*
X01386Y00787D03*
X01623D03*
X01386Y00642D03*
X01623D03*
G54D25*
X00687Y02193D02*
X00745Y0225D01*
X00687Y02125D02*
Y02193D01*
X0072Y02429D02*
X00745Y02404D01*
Y02369D02*
Y02404D01*
X0069Y01339D02*
Y019D01*
X00565Y02025D02*
X0069Y019D01*
X01556Y00327D02*
Y01528D01*
X01358Y00405D02*
X01448Y00495D01*
X01226Y00405D02*
X01358D01*
X01175Y00353D02*
X01226Y00405D01*
X00955Y0187D02*
Y01925D01*
X00899Y0198D02*
X00955Y01925D01*
X00899Y0198D02*
Y0203D01*
X00993*
X00855Y01862D02*
Y0187D01*
Y01862D02*
X01189Y01528D01*
X01556*
X00943Y00459D02*
X01075Y00327D01*
X00943Y00459D02*
Y00495D01*
X01075Y0032D02*
Y00327D01*
X0069Y01339D02*
X01326Y00702D01*
X01165Y02045D02*
X01185Y02025D01*
X01018Y02361D02*
Y02383D01*
X0174Y0243D02*
X01835Y02335D01*
X01065Y0243D02*
X0174D01*
X01018Y02383D02*
X01065Y0243D01*
X01835Y0026D02*
Y02335D01*
X01697Y02242D02*
X0171Y0223D01*
X01522Y02242D02*
X01697D01*
X01553Y0233D02*
X0171D01*
X01522Y02361D02*
X01553Y0233D01*
X00254Y02429D02*
X0072D01*
X00115Y0229D02*
X00254Y02429D01*
X00115Y0229D02*
Y00445D01*
X00306Y02361D02*
X00488D01*
X00285Y0234D02*
X00306Y02361D01*
X01664Y0009D02*
X01835Y0026D01*
X00762Y0009D02*
X01664D01*
X00675Y00177D02*
X00762Y0009D01*
X01175Y0032D02*
Y00353D01*
X01096Y00455D02*
X01175D01*
X01056Y00495D02*
X01096Y00455D01*
X01326Y00702D02*
X01386Y00642D01*
X01085Y00702D02*
X01326D01*
X01024Y00642D02*
X01085Y00702D01*
X00887Y00642D02*
X01024D01*
X01475Y0032D02*
Y00327D01*
X00115Y00445D02*
X0033Y0023D01*
X0019Y00485D02*
Y02269D01*
Y00485D02*
X00355Y0032D01*
X0019Y02269D02*
X0026Y0234D01*
X00285*
X00363Y0224D02*
X00365Y02242D01*
X00285Y0224D02*
X00363D01*
X00675Y00177D02*
Y0032D01*
X01496Y00243D02*
X01718D01*
X01475Y00265D02*
X01496Y00243D01*
X01475Y00265D02*
Y0032D01*
X01375Y00312D02*
Y0032D01*
X01305Y00242D02*
X01375Y00312D01*
X01305Y0017D02*
Y00242D01*
X01275Y00312D02*
Y0032D01*
X0118Y00217D02*
X01275Y00312D01*
X0118Y0017D02*
Y00217D01*
X01567Y00327D02*
X01575Y0032D01*
X01556Y00327D02*
X01567D01*
X00575Y0026D02*
Y0032D01*
X0033Y0023D02*
X00545D01*
X00575Y0026*
X00695Y00495D02*
X00755Y00555D01*
X00561Y00495D02*
X00695D01*
X00355Y0032D02*
X00475D01*
X00975D02*
Y00327D01*
X00906Y00396D02*
X00975Y00327D01*
X00478Y00396D02*
X00906D01*
X00448Y00426D02*
X00478Y00396D01*
X00448Y00426D02*
Y00495D01*
X00365D02*
X00448D01*
X0031Y0055D02*
X00365Y00495D01*
X0031Y0055D02*
Y00709D01*
X00388Y00787*
X01085Y02125D02*
X0116Y0205D01*
X01718Y00243D02*
X0175Y00275D01*
X01672Y02013D02*
X0175Y01935D01*
Y00275D02*
Y01935D01*
X01648Y02036D02*
Y02125D01*
Y02036D02*
X01672Y02013D01*
X01367Y02102D02*
Y02125D01*
Y02043D02*
Y02102D01*
Y02043D02*
X01397Y02013D01*
X0129Y02025D02*
X01367Y02102D01*
X01185Y02025D02*
X0129D01*
X01085Y02122D02*
Y02125D01*
X00993Y0203D02*
X01085Y02122D01*
X00804Y02125D02*
X00899Y0203D01*
X00804Y02122D02*
Y02125D01*
X00706Y02025D02*
X00804Y02122D01*
X00565Y02025D02*
X00706D01*
X00523Y02066D02*
X00565Y02025D01*
X00523Y02066D02*
Y02125D01*
X01397Y02013D02*
X01672D01*
X00966Y02127D02*
X01005Y02166D01*
X01522Y02134D02*
X01531Y02125D01*
X01522Y02134D02*
Y02242D01*
X01435Y02135D02*
X0145Y0212D01*
X01435Y02135D02*
Y02231D01*
X0125Y02125D02*
X01263Y02138D01*
Y02242*
X00406Y02125D02*
Y0216D01*
X00488Y02242*
X00365D02*
X00488D01*
X01263Y02361D02*
X01305D01*
X01435Y02231*
X01005Y02361D02*
X01018D01*
X00498Y00642D02*
X00558Y00702D01*
X00726*
X00787Y00642*
X01005Y02166D02*
Y02242D01*
G54D26*
X0145Y00495D02*
Y00724D01*
X01386Y00787D02*
X0145Y00724D01*
X01448Y00495D02*
X0145D01*
X00816Y00787D02*
X00887D01*
X00388Y00642D02*
X00498D01*
X00787D02*
X00887D01*
G54D27*
X00115Y0012D03*
X0188Y00125D03*
Y02445D03*
X00115Y0245D03*
G54D28*
X00285Y0224D03*
X0171Y0233D03*
G54D29*
X00285Y0234D03*
X0171Y0223D03*
X00855Y0187D03*
X00955D03*
X01055D03*
X01575Y0032D03*
X01475D03*
X01375D03*
X01275D03*
X01175D03*
X01075D03*
X00975D03*
X00875D03*
X00775D03*
X00675D03*
X00575D03*
G54D30*
X01155Y0187D03*
X00475Y0032D03*
G54D31*
X01175Y00455D03*
X0118Y0017D03*
X01305D03*
X00755Y00555D03*
X0145Y0212D03*
X00816Y00787D03*
M02*