%FSTAX23Y23*%
%MOIN*%
%SFA1B1*%

%IPPOS*%
%ADD11C,0.010000*%
%ADD32C,0.007870*%
%LNbuttonpanel-1*%
%LPD*%
G54D11*
X01614Y02075D02*
X01555D01*
X01574Y02094*
X01555Y02114*
X01614*
Y02134D02*
X01555D01*
X01584*
X01594Y02144*
Y02164*
X01584Y02174*
X01555*
Y02194D02*
Y02214D01*
Y02204*
X01594*
Y02194*
X01604Y02254D02*
X01594D01*
Y02244*
Y02264*
Y02254*
X01565*
X01555Y02264*
Y02324D02*
Y02304D01*
X01565Y02294*
X01584*
X01594Y02304*
Y02324*
X01584Y02334*
X01574*
Y02294*
X01555Y02384D02*
X01614D01*
X01584Y02354*
Y02394*
X00449Y0208D02*
X0039D01*
X00409Y02099*
X0039Y02119*
X00449*
Y02139D02*
X0039D01*
X00419*
X00429Y02149*
Y02169*
X00419Y02179*
X0039*
Y02199D02*
Y02219D01*
Y02209*
X00429*
Y02199*
X00439Y02259D02*
X00429D01*
Y02249*
Y02269*
Y02259*
X004*
X0039Y02269*
Y02329D02*
Y02309D01*
X004Y02299*
X00419*
X00429Y02309*
Y02329*
X00419Y02339*
X00409*
Y02299*
X00439Y02359D02*
X00449Y02369D01*
Y02389*
X00439Y02399*
X00429*
X00419Y02389*
Y02379*
Y02389*
X00409Y02399*
X004*
X0039Y02389*
Y02369*
X004Y02359*
X0109Y02019D02*
X0111D01*
X0112Y02009*
Y0197*
X0111Y0196*
X0109*
X0108Y0197*
Y02009*
X0109Y02019*
X0106D02*
Y0196D01*
X0102*
X0096Y02019D02*
X01D01*
Y0196*
X0096*
X01Y01989D02*
X0098D01*
X0094Y02019D02*
Y0196D01*
X0091*
X009Y0197*
Y02009*
X0091Y02019*
X0094*
X0119Y00195D02*
Y00234D01*
X0117Y00254*
X0115Y00234*
Y00195*
Y00224*
X0119*
X0113Y00234D02*
Y00195D01*
Y00214*
X0112Y00224*
X0111Y00234*
X011*
X0103Y00254D02*
Y00195D01*
X0106*
X0107Y00205*
Y00224*
X0106Y00234*
X0103*
X0101D02*
Y00205D01*
X01Y00195*
X0097*
Y00234*
X0095Y00195D02*
X0093D01*
X0094*
Y00234*
X0095*
X009Y00195D02*
Y00234D01*
X0087*
X0086Y00224*
Y00195*
X0083D02*
X0081D01*
X008Y00205*
Y00224*
X0081Y00234*
X0083*
X0084Y00224*
Y00205*
X0083Y00195*
X0Y0D02*
Y0256D01*
Y0D02*
X0199D01*
Y0256*
X0D02*
X0199D01*
G54D32*
X00235Y0239D02*
X00335D01*
X00235Y0219D02*
Y0239D01*
Y0219D02*
X00335D01*
Y0239*
X0166Y0218D02*
X0176D01*
Y0238*
X0166D02*
X0176D01*
X0166Y0218D02*
Y0238D01*
X01205Y0182D02*
Y0192D01*
X00805D02*
X01205D01*
X00805Y0182D02*
X01205D01*
X00805D02*
Y0192D01*
X005Y0027D02*
X01625D01*
X00425D02*
X005D01*
X00425D02*
Y0037D01*
X01625*
Y0027D02*
Y0037D01*
M02*