%FSTAX23Y23*%
%MOIN*%
%SFA1B1*%

%IPPOS*%
%ADD11C,0.010000*%
%ADD12R,0.044490X0.069690*%
%ADD13R,0.038190X0.068110*%
%ADD14R,0.068110X0.043310*%
%ADD15R,0.039370X0.027560*%
%ADD27C,0.122050*%
%ADD28R,0.059060X0.059060*%
%ADD29C,0.059060*%
%ADD30R,0.059060X0.059060*%
%LNbuttonpanel-1*%
%LPD*%
G54D11*
X0Y0D02*
Y0256D01*
Y0D02*
X0199D01*
Y0256*
X0D02*
X0199D01*
G54D12*
X01056Y00495D03*
X00943D03*
X01561D03*
X01448D03*
X00448D03*
X00561D03*
G54D13*
X01531Y02125D03*
X01648D03*
X0125D03*
X01367D03*
X00969D03*
X01085D03*
X00687D03*
X00804D03*
X00406D03*
X00523D03*
G54D14*
X01522Y02242D03*
Y02361D03*
X01263Y02242D03*
Y02361D03*
X01005Y02242D03*
Y02361D03*
X00745Y0225D03*
Y02369D03*
X00488Y02242D03*
Y02361D03*
G54D15*
X00388Y00787D03*
X00625D03*
X00388Y00642D03*
X00625D03*
X00887Y00787D03*
X01124D03*
X00887Y00642D03*
X01124D03*
X01386Y00787D03*
X01623D03*
X01386Y00642D03*
X01623D03*
G54D27*
X00115Y0012D03*
X0188Y00125D03*
Y02445D03*
X00115Y0245D03*
G54D28*
X00285Y0224D03*
X0171Y0233D03*
G54D29*
X00285Y0234D03*
X0171Y0223D03*
X00855Y0187D03*
X00955D03*
X01055D03*
X01575Y0032D03*
X01475D03*
X01375D03*
X01275D03*
X01175D03*
X01075D03*
X00975D03*
X00875D03*
X00775D03*
X00675D03*
X00575D03*
G54D30*
X01155Y0187D03*
X00475Y0032D03*
M02*