%FSTAX23Y23*%
%MOIN*%
%SFA1B1*%

%IPPOS*%
%ADD10C,0.005000*%
%ADD11C,0.010000*%
%LNbuttonpanel-1*%
%LPD*%
G54D10*
X00935Y0046D02*
Y00529D01*
X01064Y0046D02*
Y00529D01*
X00935D02*
X01064D01*
X00935Y0046D02*
X01064D01*
X00935D02*
Y00529D01*
X01064Y0046D02*
Y00529D01*
X00935D02*
X01064D01*
X00935Y0046D02*
X01064D01*
X0144D02*
Y00529D01*
X01569Y0046D02*
Y00529D01*
X0144D02*
X01569D01*
X0144Y0046D02*
X01569D01*
X0144D02*
Y00529D01*
X01569Y0046D02*
Y00529D01*
X0144D02*
X01569D01*
X0144Y0046D02*
X01569D01*
X0044D02*
X00569D01*
X0044Y00529D02*
X00569D01*
Y0046D02*
Y00529D01*
X0044Y0046D02*
Y00529D01*
Y0046D02*
X00569D01*
X0044Y00529D02*
X00569D01*
Y0046D02*
Y00529D01*
X0044Y0046D02*
Y00529D01*
X01527Y02091D02*
X01652D01*
X01527Y02158D02*
X01652D01*
Y02091D02*
Y02158D01*
X01527Y02091D02*
Y02158D01*
Y02091D02*
X01652D01*
X01527Y02158D02*
X01652D01*
Y02091D02*
Y02158D01*
X01527Y02091D02*
Y02158D01*
X01245Y02091D02*
X01371D01*
X01245Y02158D02*
X01371D01*
Y02091D02*
Y02158D01*
X01245Y02091D02*
Y02158D01*
Y02091D02*
X01371D01*
X01245Y02158D02*
X01371D01*
Y02091D02*
Y02158D01*
X01245Y02091D02*
Y02158D01*
X00964Y02091D02*
X0109D01*
X00964Y02158D02*
X0109D01*
Y02091D02*
Y02158D01*
X00964Y02091D02*
Y02158D01*
Y02091D02*
X0109D01*
X00964Y02158D02*
X0109D01*
Y02091D02*
Y02158D01*
X00964Y02091D02*
Y02158D01*
X00683Y02091D02*
X00809D01*
X00683Y02158D02*
X00809D01*
Y02091D02*
Y02158D01*
X00683Y02091D02*
Y02158D01*
Y02091D02*
X00809D01*
X00683Y02158D02*
X00809D01*
Y02091D02*
Y02158D01*
X00683Y02091D02*
Y02158D01*
X00402Y02091D02*
X00527D01*
X00402Y02158D02*
X00527D01*
Y02091D02*
Y02158D01*
X00402Y02091D02*
Y02158D01*
Y02091D02*
X00527D01*
X00402Y02158D02*
X00527D01*
Y02091D02*
Y02158D01*
X00402Y02091D02*
Y02158D01*
X01488Y02237D02*
X01555D01*
X01488D02*
Y02366D01*
X01555*
Y02237D02*
Y02366D01*
X01488Y02237D02*
X01555D01*
X01488D02*
Y02366D01*
X01555*
Y02237D02*
Y02366D01*
X0123Y02237D02*
X01297D01*
X0123D02*
Y02366D01*
X01297*
Y02237D02*
Y02366D01*
X0123Y02237D02*
X01297D01*
X0123D02*
Y02366D01*
X01297*
Y02237D02*
Y02366D01*
X00971Y02237D02*
X01038D01*
X00971D02*
Y02366D01*
X01038*
Y02237D02*
Y02366D01*
X00971Y02237D02*
X01038D01*
X00971D02*
Y02366D01*
X01038*
Y02237D02*
Y02366D01*
X00711Y02245D02*
X00778D01*
X00711D02*
Y02374D01*
X00778*
Y02245D02*
Y02374D01*
X00711Y02245D02*
X00778D01*
X00711D02*
Y02374D01*
X00778*
Y02245D02*
Y02374D01*
X00455Y02237D02*
X00522D01*
X00455D02*
Y02366D01*
X00522*
Y02237D02*
Y02366D01*
X00455Y02237D02*
X00522D01*
X00455D02*
Y02366D01*
X00522*
Y02237D02*
Y02366D01*
X00564Y00612D02*
X00609Y00657D01*
X00404Y00657D02*
X00449Y00612D01*
X00404Y00769D02*
X00451Y00817D01*
X00563D02*
X00609Y00771D01*
X00564Y00612D02*
X00609Y00657D01*
X00404Y00657D02*
X00449Y00612D01*
X00404Y00769D02*
X00451Y00817D01*
X00563D02*
X00609Y00771D01*
X01063Y00612D02*
X01108Y00657D01*
X00903Y00657D02*
X00948Y00612D01*
X00903Y00769D02*
X0095Y00817D01*
X01062D02*
X01108Y00771D01*
X01063Y00612D02*
X01108Y00657D01*
X00903Y00657D02*
X00948Y00612D01*
X00903Y00769D02*
X0095Y00817D01*
X01062D02*
X01108Y00771D01*
X01562Y00612D02*
X01607Y00657D01*
X01402Y00657D02*
X01447Y00612D01*
X01402Y00769D02*
X0145Y00817D01*
X01561D02*
X01607Y00771D01*
X01562Y00612D02*
X01607Y00657D01*
X01402Y00657D02*
X01447Y00612D01*
X01402Y00769D02*
X0145Y00817D01*
X01561D02*
X01607Y00771D01*
G54D11*
X0Y0D02*
Y0256D01*
Y0D02*
X0199D01*
Y0256*
X0D02*
X0199D01*
M02*